<svg id="Layer_1" data-name="Layer 1" xmlns="http://www.w3.org/2000/svg" viewBox="0 0 1443.99 430.38"><defs><style>.cls-1{fill:#0d9948;}.cls-2{fill:#7fbd42;}.cls-3{fill:#bec13b;}</style></defs><path class="cls-1" d="M517.74,154.23l-2.16,0h-1l-1.37,0-2.35.07a96.7,96.7,0,0,0-91.78,85.51c0,.41-.09.81-.13,1.21-.08.81-.15,1.63-.21,2.44,0,.3,0,.61-.07.91-.08,1.33-.14,2.67-.17,4,0,.33,0,.67,0,1,0,.49,0,1,0,1.47,0,1.17,0,2.32.06,3.47,0,.39,0,.78.05,1.17l.06,1.16.06.92q.19,2.79.54,5.54A95.93,95.93,0,0,0,428.57,294c0,.09.09.18.13.28a96.66,96.66,0,0,0,84.46,53.23h1.93l2.1,0A96.08,96.08,0,0,0,544.47,343l.89-.29a96.7,96.7,0,0,0,43.71-29.61c.3-.36.59-.71.88-1.08a3.5,3.5,0,0,0,.24-.3,96.64,96.64,0,0,0-72.45-157.45Zm37.71,129.58-.47.58a52.34,52.34,0,0,1-23.57,16l-.48.15A52.14,52.14,0,0,1,516.22,303h-2.17a52.15,52.15,0,0,1-50.66-45.49c-.12-1-.22-2-.29-3,0-.16,0-.33,0-.5l0-.62,0-.63c0-.62,0-1.25,0-1.87,0-.26,0-.52,0-.79s0-.36,0-.55c0-.72.05-1.45.1-2.16,0-.17,0-.33,0-.49q0-.66.12-1.32l.06-.65a51.6,51.6,0,0,1,3.88-14.59c.07-.17.14-.33.22-.49s.18-.43.29-.65c.6-1.34,1.28-2.65,2-3.91a52.09,52.09,0,0,1,43.11-26.46c.42,0,.84,0,1.26,0h1.3l1.16,0a51.81,51.81,0,0,1,31.7,11.87c.52.42,1,.85,1.52,1.3a52.11,52.11,0,0,1,5.71,71.88Z"/><path class="cls-1" d="M396.65,206.34H361q.35,4.38.35,8.85a112.64,112.64,0,1,1-35-81.6l25.15-25.15a148.45,148.45,0,0,0-124-40c-2.37,5.41-4.61,10.86-7.76,16-4.06,6.55-9.05,12.65-15.45,16.93-4.83,3.24-10.33,5.35-15.75,7.47-22.15,8.63-44.82,18.43-60.69,36.13a81.37,81.37,0,0,0-19.24,38.82c-.83,4.29-2.82,9.66-4,13.87-1.43,5.16-2.36,9-3.39,14.32a53.13,53.13,0,0,0-.48,12.92c0,.57.07,1.13.11,1.69a148.21,148.21,0,0,0,296-11.4Q396.92,210.72,396.65,206.34Z"/><path class="cls-1" d="M383.42,206.4H351.09c.21,2.66.32,5.33.32,8a102.2,102.2,0,1,1-31.74-74l22.82-22.81A134,134,0,0,0,249.22,80c-5.61,0-11.72-.06-17.23,1.09-4,.84-5.85,5.88-8.7,8.82-5.36,5.51-10.77,11.06-17.16,15.34-4.16,2.79-8.69,5-13,7.61-2.95,1.79-5.78,3.77-8.86,5.31-2.72,1.37-5.61,2.39-8.32,3.77a67.27,67.27,0,0,0-8.47,5.43l-16.88,12c-7.49,5.33-12.33,12-17.37,19.61a74,74,0,0,0-11.07,27c-.74,3.89-2.55,8.76-3.61,12.58-1.29,4.69-2.13,8.2-3.07,13a47.84,47.84,0,0,0-.43,11.72l.09,1.53a134.45,134.45,0,0,0,268.5-10.34C383.67,211.73,383.58,209.06,383.42,206.4Z"/><path class="cls-1" d="M369.64,216.68a40.63,40.63,0,0,1,2.86,5.76c2.88,7.23,3.1,16-1.36,22.36-1.28-6.35-2.67-12.72-5.13-18.7a46.14,46.14,0,0,0-3.77-7.29c-9.55-14.85-31.74-20.71-48.38-22.54a104.27,104.27,0,0,0-44.66,5.23A133.12,133.12,0,0,0,237.92,217c-3,2-6,4.17-8.82,6.46-1,.77-2.18,2.33-3.32,2.81,80-33.74,115.83,1.13,115.83,1.13-18,20.71-36,33-53.46,39.38a91.13,91.13,0,0,1-28.31,5.56,102.06,102.06,0,0,1-39-6.68c-39.27-14.52-66.33-47.53-66.33-47.53,25.36-.28,40.84-6.79,54-15.2,1.06-.69,2.11-1.38,3.14-2.09,19-12.89,34.36-29.23,70.57-35.14,22.51-3.68,39.74,2.08,52.59,11a84.4,84.4,0,0,1,21,21.28C360.22,204.25,365.7,210.05,369.64,216.68Z"/><path class="cls-1" d="M358.18,206.44a17.31,17.31,0,0,0,1.18,2.55c1.67,3,4.58,5.44,8,5.67a44.32,44.32,0,0,1-4.95-6.87,19.91,19.91,0,0,1-1.44-3.28c-2.43-7.32,1.66-16.47,5.6-22.63a45.56,45.56,0,0,1,14-13.75,58,58,0,0,1,13.86-6.37c1.52-.47,3.06-.89,4.62-1.23a7.66,7.66,0,0,0,1.86-.36c-33.4,17.94-31.38,39.69-31.38,39.69,12-.42,21.1-3.2,28.05-7.37a39.86,39.86,0,0,0,9.65-8.1,44.65,44.65,0,0,0,8.42-15.09c5.84-17.33,2-35.58,2-35.58-7.05,8.54-13.51,12-20,14.19l-1.57.5c-9.61,2.93-19.36,3.66-31.3,14.35-7.43,6.64-10.2,14.08-10.7,20.88a36.78,36.78,0,0,0,1.48,13C356.54,199.83,357,203.28,358.18,206.44Z"/><path class="cls-2" d="M100.7,129.88S98.05-17.1,264.56,2c0,0-33.18,17-46.13,66.36S144.37,98.1,117.24,152.86c0,0,19.61-74.91,67.48-118,0,0-80.13,53.91-90.31,180.36,0,0,7.94-88.1-34.84-120.2,0,0,13.2,14.73,24.82,59.9,0,0-17.52-19.41-35.39-23.59S35.57,115.82,27.8,81.84,0,43.53,0,43.53,76,47.47,100.7,129.88Z"/><polygon class="cls-3" points="635.13 347.51 638.91 96.9 811.03 96.9 794.5 166.88 711.73 169.72 713.62 205.65 772.19 195.25 760.91 237.81 708.89 244.43 713.62 347.51 635.13 347.51"/><path class="cls-3" d="M930.19,353.18,903.71,164l-86.89,4.74L777.93,347.51l63.37,5.67.94-29.32H869.6l-3.71,29.32Zm-85.11-65.25,9-53,15.54,53Z"/><path class="cls-3" d="M1052.19,266.17s88-75.64,22.69-105.91-127.33,7.56-127.33,7.56V353.18l65.86-5.67V284.14l48.24,63.37,42.55-29.31Zm-41.29-7.56V218.89c32.14-9.45,42.23,3.31,42.23,3.31C1049.35,258.3,1010.9,258.61,1010.9,258.61Z"/><path class="cls-3" d="M1110.12,347.51s19.62-150.37,19.62-178.74l74.71-4.73L1219.58,235l11.35-67.14,77.55-3.79s24.58,166.45,34,179.69l-74.71,3.78-15.13-91.73-8.51,91.73h-35l-19.86-91.73L1177,347.51Z"/></svg>