<svg id="Layer_1" data-name="Layer 1" xmlns="http://www.w3.org/2000/svg" viewBox="0 0 610.43 610.43"><defs><style>.cls-1{fill:#0d9948;}.cls-2{fill:#7fbd42;}.cls-3{fill:#bec13b;}</style></defs><path class="cls-1" d="M470.63,239.8H436.4v.07h-9.53q.3,3.81.3,7.71a98.14,98.14,0,1,1-30.48-71.1l21.92-21.91-.06-.06,8.74-8.74a142.59,142.59,0,0,0-119.06-38.38c-2.28,5.2-4.43,10.43-7.46,15.33-3.9,6.29-8.68,12.15-14.83,16.26-4.64,3.12-9.92,5.14-15.13,7.17-21.28,8.29-43.05,17.71-58.3,34.7A78.39,78.39,0,0,0,194,218.14c-.79,4.12-2.71,9.28-3.82,13.33-1.38,5-2.27,8.68-3.26,13.75a50.46,50.46,0,0,0-.45,12.41c0,.55.06,1.09.1,1.62A142.36,142.36,0,0,0,470.89,248.3C470.89,245.45,470.8,242.61,470.63,239.8Z"/><path class="cls-1" d="M444.68,249.74a38.54,38.54,0,0,1,2.76,5.53c2.76,6.94,3,15.35-1.31,21.47a97.12,97.12,0,0,0-4.93-17.95,45.13,45.13,0,0,0-3.62-7c-9.18-14.26-30.49-19.89-46.47-21.65a100.2,100.2,0,0,0-42.9,5,127.41,127.41,0,0,0-30,14.92c-2.91,1.95-5.75,4-8.47,6.21-.92.74-2.1,2.24-3.19,2.7,76.81-32.41,111.25,1.08,111.25,1.08-17.24,19.89-34.6,31.7-51.35,37.83a87.55,87.55,0,0,1-27.19,5.34,98.16,98.16,0,0,1-37.44-6.42c-37.72-13.95-63.71-45.65-63.71-45.65,24.36-.27,39.23-6.52,51.88-14.61,1-.66,2-1.32,3-2,18.28-12.38,33-28.08,67.78-33.75,21.62-3.53,38.17,2,50.51,10.53a80.92,80.92,0,0,1,20.16,20.44C435.63,237.8,440.9,243.37,444.68,249.74Z"/><path class="cls-1" d="M433.67,239.81a16.82,16.82,0,0,0,1,2.36c1.43,2.75,4,5.09,7.08,5.41a40.26,40.26,0,0,1-4.29-6.41,18.06,18.06,0,0,1-1.21-3c-2-6.73,2-14.93,5.8-20.41a41.54,41.54,0,0,1,13.19-12.08A53.15,53.15,0,0,1,468,200.29c1.4-.39,2.81-.72,4.24-1a7.44,7.44,0,0,0,1.71-.26C443,214.33,444.2,234.18,444.2,234.18c10.9,0,19.3-2.25,25.75-5.84a35.91,35.91,0,0,0,9-7.07,40.51,40.51,0,0,0,8.13-13.46c5.85-15.59,3-32.31,3-32.31-6.68,7.55-12.67,10.52-18.62,12.29-.48.14-1,.28-1.45.4-8.83,2.38-17.73,2.73-28.92,12.09-7,5.81-9.71,12.49-10.38,18.67a33.82,33.82,0,0,0,.94,11.85C432.39,233.75,432.7,236.9,433.67,239.81Z"/><path class="cls-2" d="M186.37,166.37S183.82,25.19,343.75,43.52c0,0-31.87,16.33-44.3,63.74s-71.13,28.58-97.2,81.18c0,0,18.84-72,64.82-113.37,0,0-77,51.78-86.74,173.23,0,0,7.62-84.61-33.47-115.45,0,0,12.69,14.15,23.84,57.54,0,0-16.82-18.65-34-22.66s-12.9-14.87-20.36-47.51-26.7-36.79-26.7-36.79S162.67,87.21,186.37,166.37Z"/><path class="cls-1" d="M232.05,460.64l-.93,0h-1.05l-1,0a42,42,0,0,0-39.88,37.16l-.06.53-.09,1.06,0,.39c0,.58-.06,1.16-.08,1.75,0,.14,0,.29,0,.44v.64c0,.5,0,1,0,1.5l0,.51c0,.17,0,.34,0,.51l0,.4c.05.81.13,1.61.23,2.4a41.71,41.71,0,0,0,4.07,13.42l.06.12a42,42,0,0,0,36.7,23.13h1.75a41.84,41.84,0,0,0,11.86-2l.38-.12a42.1,42.1,0,0,0,19-12.87c.13-.16.26-.31.38-.47l.11-.13a42,42,0,0,0-31.49-68.42ZM248.44,517l-.21.25a22.52,22.52,0,0,1-4.07,3.79,22.9,22.9,0,0,1-6.17,3.15l-.2.07a22.93,22.93,0,0,1-6.4,1.06h-.94a22.7,22.7,0,0,1-22-19.77c-.05-.43-.09-.86-.12-1.3,0-.07,0-.14,0-.22s0-.18,0-.27,0-.18,0-.27c0-.27,0-.54,0-.81v-.35a1.93,1.93,0,0,1,0-.24c0-.31,0-.63,0-.94,0-.07,0-.14,0-.21s0-.38.05-.57l0-.28a22.07,22.07,0,0,1,1.69-6.34,1.45,1.45,0,0,1,.09-.22c0-.09.08-.19.13-.28.26-.58.55-1.15.86-1.7A22.65,22.65,0,0,1,229.9,480l.56,0h1.06a22.53,22.53,0,0,1,13.78,5.16l.66.56a22.63,22.63,0,0,1,7.06,12,23,23,0,0,1,.53,4.88A22.55,22.55,0,0,1,248.44,517Z"/><path class="cls-1" d="M179.43,483.28H164c.1,1.27.15,2.56.15,3.85a48.94,48.94,0,1,1-15.2-35.46l10.93-10.93A64.39,64.39,0,0,0,106,423.38a54,54,0,0,1-3.37,6.93,23.57,23.57,0,0,1-6.72,7.36A33.76,33.76,0,0,1,89,440.91c-9.63,3.75-19.48,8-26.37,15.7a35.37,35.37,0,0,0-8.37,16.87c-.35,1.87-1.22,4.2-1.72,6-.63,2.25-1,3.93-1.48,6.22a23.47,23.47,0,0,0-.2,5.62c0,.24,0,.49,0,.73a64.41,64.41,0,0,0,128.62-4.95C179.55,485.84,179.51,484.55,179.43,483.28Z"/><path class="cls-1" d="M173.68,483.31h-14c.09,1.15.13,2.32.13,3.49A44.42,44.42,0,1,1,146,454.64l9.92-9.92a58.25,58.25,0,0,0-40.53-16.34,37.53,37.53,0,0,0-7.49.47c-1.76.37-2.54,2.56-3.78,3.83a47.65,47.65,0,0,1-7.46,6.67c-1.81,1.21-3.77,2.17-5.63,3.31-1.28.77-2.51,1.64-3.85,2.31-1.18.59-2.44,1-3.62,1.63A30.25,30.25,0,0,0,79.86,449l-7.34,5.22c-3.25,2.32-5.35,5.23-7.54,8.53a32,32,0,0,0-4.81,11.71c-.33,1.69-1.11,3.81-1.57,5.47-.56,2-.93,3.56-1.34,5.65a20.61,20.61,0,0,0-.18,5.09c0,.22,0,.44,0,.66a58.42,58.42,0,0,0,116.67-4.49C173.79,485.63,173.76,484.46,173.68,483.31Z"/><path class="cls-1" d="M167.69,487.78a17.67,17.67,0,0,1,1.25,2.5c1.25,3.14,1.35,6.94-.59,9.71a44.57,44.57,0,0,0-2.23-8.12,20.67,20.67,0,0,0-1.64-3.17c-4.15-6.45-13.79-9-21-9.79a45.39,45.39,0,0,0-19.41,2.27,57.46,57.46,0,0,0-13.59,6.75c-1.32.89-2.6,1.82-3.84,2.81a8.31,8.31,0,0,1-1.44,1.22c34.75-14.66,50.33.49,50.33.49-7.8,9-15.65,14.34-23.23,17.12A39.54,39.54,0,0,1,120,512a44.24,44.24,0,0,1-16.94-2.9C86,502.77,74.22,488.43,74.22,488.43c11-.13,17.74-2.95,23.47-6.61.46-.3.92-.6,1.37-.91,8.27-5.6,14.92-12.7,30.66-15.27,9.78-1.6,17.27.9,22.86,4.76a37.11,37.11,0,0,1,9.12,9.25C163.6,482.38,166,484.89,167.69,487.78Z"/><path class="cls-1" d="M162.72,483.33a7.92,7.92,0,0,0,.51,1.11,4.56,4.56,0,0,0,3.46,2.46,19.69,19.69,0,0,1-2.15-3,9,9,0,0,1-.63-1.42c-1-3.18.73-7.16,2.44-9.84a19.75,19.75,0,0,1,6.1-6,25.27,25.27,0,0,1,6-2.77c.66-.2,1.33-.39,2-.53a3.72,3.72,0,0,0,.82-.16c-14.52,7.8-13.64,17.25-13.64,17.25a25,25,0,0,0,12.19-3.21,17.13,17.13,0,0,0,4.19-3.52,19.32,19.32,0,0,0,3.66-6.55,33.29,33.29,0,0,0,.89-15.46,18,18,0,0,1-8.69,6.16l-.68.22c-4.17,1.27-8.41,1.59-13.6,6.24a13.16,13.16,0,0,0-4.65,9.07,16.07,16.07,0,0,0,.64,5.64C162,480.45,162.21,482,162.72,483.33Z"/><path class="cls-2" d="M50.83,450.06s-1.16-63.87,71.2-55.58c0,0-14.42,7.39-20,28.84S69.81,436.25,58,460c0,0,8.53-32.55,29.33-51.28,0,0-34.82,23.42-39.25,78.37,0,0,3.45-38.28-15.13-52.23,0,0,5.73,6.4,10.78,26,0,0-7.61-8.44-15.38-10.25s-5.84-6.73-9.21-21.5S7.07,412.53,7.07,412.53,40.11,414.25,50.83,450.06Z"/><polygon class="cls-3" points="283.06 544.63 284.71 435.73 359.5 435.73 352.32 466.14 316.35 467.37 317.17 482.99 342.62 478.46 337.72 496.96 315.12 499.83 317.17 544.63 283.06 544.63"/><path class="cls-3" d="M411.28,547.09l-11.5-82.19L362,467l-16.9,77.67,27.53,2.46.41-12.74H385l-1.61,12.74Zm-37-28.35,3.9-23,6.75,23Z"/><path class="cls-3" d="M464.3,509.28s38.21-32.87,9.86-46-55.33,3.29-55.33,3.29v80.54l28.62-2.46V517.09l21,27.54,18.49-12.74ZM446.35,506V488.74c14-4.11,18.36,1.44,18.36,1.44C463.06,505.86,446.35,506,446.35,506Z"/><path class="cls-3" d="M489.47,544.63S498,479.29,498,467l32.47-2.06L537,495.73,542,466.55l33.7-1.65s10.68,72.33,14.79,78.09L558,544.63l-6.57-39.86-3.7,39.86h-15.2l-8.63-39.86-5.35,39.86Z"/></svg>