<svg id="Layer_1" data-name="Layer 1" xmlns="http://www.w3.org/2000/svg" viewBox="0 0 610.43 610.43"><defs><style>.cls-1{fill:#0d9948;}.cls-2{fill:#7fbd42;}.cls-3{fill:#bec13b;}</style></defs><path class="cls-1" d="M236.12,292.79h-2.05l-1.06,0a43.5,43.5,0,0,0-41.3,38.48l-.06.55c0,.36-.07.73-.1,1.09l0,.41c0,.6-.06,1.2-.08,1.81,0,.15,0,.3,0,.46v.66c0,.52,0,1,0,1.56,0,.18,0,.35,0,.53l0,.52,0,.41c.06.84.14,1.67.24,2.5A43.3,43.3,0,0,0,196,355.69l.06.13a43.49,43.49,0,0,0,38,23.95h1.81a43.61,43.61,0,0,0,12.28-2l.4-.13a43.51,43.51,0,0,0,19.67-13.33c.14-.16.27-.32.4-.49l.11-.13a43.5,43.5,0,0,0-32.61-70.87Zm17,58.32a2.65,2.65,0,0,1-.21.26,23.55,23.55,0,0,1-10.61,7.19l-.21.07a23.35,23.35,0,0,1-6.62,1.1h-1a23.46,23.46,0,0,1-22.8-20.48c0-.44-.1-.89-.13-1.34,0-.07,0-.15,0-.23s0-.18,0-.28,0-.18,0-.28c0-.28,0-.56,0-.84v-.6c0-.33,0-.66.05-1,0-.07,0-.15,0-.22s0-.39.06-.59a2.58,2.58,0,0,1,0-.29,23.25,23.25,0,0,1,1.74-6.57,2.14,2.14,0,0,1,.1-.22c0-.1.08-.2.13-.3a19.26,19.26,0,0,1,.9-1.75,23.41,23.41,0,0,1,19.4-11.91l.57,0h1.1a23.35,23.35,0,0,1,14.27,5.35c.23.18.46.38.69.58a23.39,23.39,0,0,1,7.3,12.47,22.72,22.72,0,0,1,.55,5A23.31,23.31,0,0,1,253.09,351.11Z"/><path class="cls-1" d="M181.62,316.25h-16c.11,1.31.16,2.64.16,4A50.7,50.7,0,1,1,150,283.5l11.32-11.32a66.74,66.74,0,0,0-55.79-18,54.64,54.64,0,0,1-3.49,7.18,24.4,24.4,0,0,1-7,7.62A36,36,0,0,1,88,272.36c-10,3.89-20.17,8.3-27.32,16.26A36.71,36.71,0,0,0,52,306.09c-.37,1.94-1.27,4.35-1.79,6.25-.64,2.32-1.06,4.07-1.52,6.44a24.09,24.09,0,0,0-.22,5.82c0,.25,0,.51.05.76a66.7,66.7,0,0,0,133.21-5.13C181.74,318.89,181.7,317.56,181.62,316.25Z"/><path class="cls-1" d="M175.67,316.28H161.12c.09,1.19.14,2.39.14,3.61A46,46,0,1,1,147,286.57l10.27-10.27a60.36,60.36,0,0,0-42-16.92,38.7,38.7,0,0,0-7.76.49c-1.82.38-2.63,2.65-3.91,4a49.56,49.56,0,0,1-7.73,6.9C94,272,92,273,90,274.17c-1.33.8-2.6,1.69-4,2.39-1.22.62-2.52,1.07-3.75,1.69a31.23,31.23,0,0,0-3.81,2.45l-7.6,5.41c-3.37,2.4-5.54,5.41-7.81,8.82a33.31,33.31,0,0,0-5,12.14c-.34,1.75-1.16,3.94-1.63,5.66-.58,2.11-1,3.69-1.38,5.85a21.6,21.6,0,0,0-.2,5.27c0,.23,0,.47,0,.69a60.51,60.51,0,0,0,120.84-4.65C175.78,318.67,175.74,317.47,175.67,316.28Z"/><path class="cls-1" d="M169.46,320.9a16.9,16.9,0,0,1,1.29,2.59c1.3,3.26,1.4,7.19-.61,10.06a45.92,45.92,0,0,0-2.31-8.41,21.18,21.18,0,0,0-1.69-3.28c-4.3-6.68-14.29-9.32-21.78-10.15a47,47,0,0,0-20.1,2.36,59.86,59.86,0,0,0-14.08,7c-1.36.91-2.69,1.88-4,2.91a8.5,8.5,0,0,1-1.49,1.27c36-15.19,52.13.5,52.13.5-8.08,9.32-16.21,14.86-24.06,17.73a41,41,0,0,1-12.74,2.5,46,46,0,0,1-17.55-3c-17.67-6.53-29.85-21.39-29.85-21.39,11.41-.12,18.38-3.05,24.31-6.84.47-.31,1-.62,1.41-.94,8.57-5.8,15.46-13.16,31.76-15.82,10.13-1.65,17.89.94,23.67,4.94a37.74,37.74,0,0,1,9.45,9.58C165.22,315.31,167.69,317.91,169.46,320.9Z"/><path class="cls-1" d="M164.31,316.29a8.51,8.51,0,0,0,.53,1.15,4.72,4.72,0,0,0,3.59,2.55,19.69,19.69,0,0,1-2.23-3.09,8.86,8.86,0,0,1-.65-1.48c-1.09-3.29.75-7.41,2.52-10.18a20.51,20.51,0,0,1,6.32-6.19,25.89,25.89,0,0,1,6.23-2.87c.69-.21,1.38-.4,2.08-.55a3.79,3.79,0,0,0,.84-.16c-15,8.07-14.12,17.86-14.12,17.86A25.88,25.88,0,0,0,182,310a17.83,17.83,0,0,0,4.35-3.65,20.24,20.24,0,0,0,3.79-6.78,34.59,34.59,0,0,0,.91-16,18.65,18.65,0,0,1-9,6.39l-.71.22c-4.32,1.32-8.71,1.65-14.09,6.46a13.68,13.68,0,0,0-4.81,9.4,16.71,16.71,0,0,0,.66,5.84C163.57,313.31,163.78,314.87,164.31,316.29Z"/><path class="cls-2" d="M48.42,281.83s-1.19-66.15,73.75-57.56c0,0-14.93,7.65-20.76,29.87s-33.33,13.39-45.55,38c0,0,8.83-33.71,30.38-53.11,0,0-36.06,24.26-40.65,81.17,0,0,3.57-39.65-15.68-54.1,0,0,5.94,6.63,11.17,27,0,0-7.88-8.74-15.93-10.62s-6-7-9.54-22.26S3.1,243,3.1,243,37.32,244.74,48.42,281.83Z"/><polygon class="cls-3" points="288.95 379.78 290.66 266.99 368.12 266.99 360.69 298.49 323.43 299.76 324.28 315.94 350.64 311.25 345.56 330.41 322.15 333.39 324.28 379.78 288.95 379.78"/><path class="cls-3" d="M421.75,382.33l-11.91-85.12-39.11,2.13-17.51,80.44,28.53,2.55.42-13.19h12.31l-1.67,13.19ZM383.45,353l4-23.84,7,23.84Z"/><path class="cls-3" d="M476.66,343.18s39.59-34.05,10.22-47.67-57.31,3.4-57.31,3.4v83.42l29.64-2.55V351.26l21.71,28.52,19.15-13.19Zm-18.58-3.41V321.89c14.47-4.25,19,1.49,19,1.49C475.38,339.63,458.08,339.77,458.08,339.77Z"/><path class="cls-3" d="M502.74,379.78s8.83-67.67,8.83-80.44l33.62-2.13L552,329.13l5.11-30.22,34.9-1.7s11.07,74.91,15.32,80.87l-33.62,1.7L566.9,338.5l-3.83,41.28H547.32l-8.94-41.28-5.53,41.28Z"/></svg>