<svg id="Layer_1" data-name="Layer 1" xmlns="http://www.w3.org/2000/svg" viewBox="0 0 610.43 610.43"><defs><style>.cls-1{fill:#0d9948;}.cls-2{fill:#7fbd42;}</style></defs><path class="cls-1" d="M574.83,340.39H523.67s0,.06,0,.09H509.44q.45,5.72.45,11.52a146.67,146.67,0,1,1-45.55-106.24L497.09,213l-.09-.09,13.07-13.06a213,213,0,0,0-177.93-57.35c-3.4,7.77-6.62,15.59-11.15,22.91-5.82,9.39-13,18.16-22.16,24.29-6.94,4.66-14.83,7.69-22.61,10.73-31.8,12.38-64.34,26.45-87.12,51.85A117,117,0,0,0,161.48,308c-1.18,6.15-4,13.86-5.71,19.91-2.05,7.41-3.38,13-4.86,20.56-1.19,6.08-1,12.33-.69,18.54.06.81.09,1.63.15,2.42C158.73,479.3,250.5,565.83,362.48,565.83c117.49,0,212.74-95.25,212.74-212.74Q575.22,346.69,574.83,340.39Z"/><path class="cls-1" d="M536.06,355.23a58.41,58.41,0,0,1,4.11,8.27c4.13,10.38,4.44,22.94-2,32.09-1.83-9.11-3.82-18.25-7.37-26.84a64.69,64.69,0,0,0-5.4-10.46C511.73,337,479.87,328.56,456,325.93c-21.63-2.38-43.55.57-64.11,7.51A190.78,190.78,0,0,0,347,355.75c-4.35,2.91-8.6,6-12.67,9.27-1.37,1.1-3.13,3.35-4.76,4,114.79-48.43,166.25,1.61,166.25,1.61-25.77,29.73-51.71,47.38-76.73,56.53a130.76,130.76,0,0,1-40.64,8c-19.89.67-38.74-3.22-55.95-9.59-56.36-20.84-95.21-68.22-95.21-68.22,36.4-.4,58.62-9.74,77.53-21.82,1.52-1,3-2,4.51-3,27.33-18.51,49.31-42,101.3-50.44,32.3-5.28,57,3,75.48,15.73a121.33,121.33,0,0,1,30.13,30.55C522.53,337.39,530.41,345.71,536.06,355.23Z"/><path class="cls-1" d="M519.6,340.4a25.33,25.33,0,0,0,1.48,3.53c2.13,4.1,6,7.6,10.58,8.07a59.42,59.42,0,0,1-6.41-9.57,27.16,27.16,0,0,1-1.81-4.52c-3-10.07,3-22.32,8.66-30.51a62,62,0,0,1,19.72-18,78.88,78.88,0,0,1,19.14-8c2.09-.57,4.2-1.07,6.33-1.45a11.22,11.22,0,0,0,2.55-.4C533.6,302.32,535.33,332,535.33,332c16.29,0,28.84-3.36,38.48-8.72a54.14,54.14,0,0,0,13.51-10.57,60.58,60.58,0,0,0,12.14-20.12c8.74-23.29,4.42-48.28,4.42-48.28-10,11.29-18.93,15.72-27.83,18.36-.72.21-1.44.42-2.16.61-13.19,3.55-26.49,4.08-43.22,18.06-10.4,8.69-14.51,18.67-15.52,27.9a50.59,50.59,0,0,0,1.41,17.71C517.68,331.34,518.15,336.05,519.6,340.4Z"/><path class="cls-2" d="M150,230.65s-3.81-211,235.2-183.59c0,0-47.63,24.41-66.22,95.25S212.72,185,173.76,263.62c0,0,28.15-107.52,96.86-169.41,0,0-115,77.38-129.62,258.88,0,0,11.4-126.45-50-172.53,0,0,19,21.14,35.62,86,0,0-25.14-27.86-50.8-33.86s-19.28-22.23-30.42-71-39.91-55-39.91-55S114.61,112.35,150,230.65Z"/></svg>