<svg id="Layer_1" data-name="Layer 1" xmlns="http://www.w3.org/2000/svg" xmlns:xlink="http://www.w3.org/1999/xlink" viewBox="0 0 1960.34 1584.65"><defs><style>.cls-1,.cls-49{fill:#146e44;}.cls-2{fill:url(#linear-gradient);}.cls-3{fill:#54522c;}.cls-4,.cls-48{fill:#7fbd42;}.cls-5{fill:#479443;}.cls-6{fill:#02312a;}.cls-7{fill:#bec13b;}.cls-8{fill:#888734;}.cls-9{fill:url(#linear-gradient-2);}.cls-10{fill:url(#linear-gradient-3);}.cls-11{fill:url(#linear-gradient-4);}.cls-12{fill:url(#linear-gradient-5);}.cls-13{fill:url(#linear-gradient-6);}.cls-14{fill:url(#linear-gradient-7);}.cls-15{fill:url(#linear-gradient-10);}.cls-16{fill:url(#linear-gradient-11);}.cls-17{fill:url(#linear-gradient-12);}.cls-18{fill:url(#linear-gradient-13);}.cls-19{fill:url(#linear-gradient-14);}.cls-20{fill:url(#linear-gradient-15);}.cls-21{fill:url(#linear-gradient-16);}.cls-22{fill:url(#linear-gradient-17);}.cls-23{fill:url(#linear-gradient-18);}.cls-24{fill:url(#linear-gradient-19);}.cls-25{fill:url(#linear-gradient-20);}.cls-26{fill:url(#linear-gradient-21);}.cls-27{fill:url(#linear-gradient-22);}.cls-28{fill:url(#linear-gradient-23);}.cls-29{fill:url(#linear-gradient-24);}.cls-30{fill:url(#linear-gradient-25);}.cls-31{fill:url(#linear-gradient-26);}.cls-32{fill:url(#linear-gradient-27);}.cls-33{fill:url(#linear-gradient-28);}.cls-34{fill:url(#linear-gradient-29);}.cls-35{fill:url(#linear-gradient-30);}.cls-36{fill:url(#linear-gradient-31);}.cls-37{fill:url(#linear-gradient-32);}.cls-38{fill:url(#linear-gradient-33);}.cls-39{fill:url(#linear-gradient-34);}.cls-40{fill:url(#linear-gradient-35);}.cls-41{fill:url(#linear-gradient-36);}.cls-42{fill:url(#linear-gradient-37);}.cls-43{fill:url(#linear-gradient-38);}.cls-44{fill:url(#linear-gradient-39);}.cls-45{fill:url(#linear-gradient-40);}.cls-46{fill:#449343;}.cls-47{fill:#469343;}.cls-48{font-size:112.68px;}.cls-48,.cls-49{font-family:FranklinGothic-Heavy, Franklin Gothic Heavy;font-weight:800;}.cls-49{font-size:105.38px;}.cls-50{letter-spacing:-0.03em;}.cls-51{fill:#0d9948;}</style><linearGradient id="linear-gradient" x1="251.73" y1="113.64" x2="251.73" y2="283.04" gradientUnits="userSpaceOnUse"><stop offset="0" stop-color="#fbcc14"/><stop offset="1" stop-color="#be5227"/></linearGradient><linearGradient id="linear-gradient-2" x1="1212.04" y1="48.9" x2="1212.04" y2="186.82" xlink:href="#linear-gradient"/><linearGradient id="linear-gradient-3" x1="1303.63" y1="48.9" x2="1303.63" y2="186.82" xlink:href="#linear-gradient"/><linearGradient id="linear-gradient-4" x1="1216.66" y1="48.9" x2="1216.66" y2="186.82" xlink:href="#linear-gradient"/><linearGradient id="linear-gradient-5" x1="1178.33" y1="48.9" x2="1178.33" y2="186.82" xlink:href="#linear-gradient"/><linearGradient id="linear-gradient-6" x1="1251.69" y1="38.59" x2="1251.69" y2="176.52" xlink:href="#linear-gradient"/><linearGradient id="linear-gradient-7" x1="1323.02" y1="-36.94" x2="1323.02" y2="233.45" xlink:href="#linear-gradient"/><linearGradient id="linear-gradient-10" x1="1266.8" y1="21.77" x2="1266.8" y2="189.28" xlink:href="#linear-gradient"/><linearGradient id="linear-gradient-11" x1="799.57" y1="77.05" x2="799.57" y2="214.98" gradientTransform="matrix(0.75, 0.66, -0.66, 0.74, 308.31, -483.99)" xlink:href="#linear-gradient"/><linearGradient id="linear-gradient-12" x1="1236.37" y1="48.9" x2="1236.37" y2="186.82" xlink:href="#linear-gradient"/><linearGradient id="linear-gradient-13" x1="767.63" y1="82.63" x2="767.63" y2="220.56" gradientTransform="matrix(0.75, 0.67, -0.66, 0.76, 268.23, -489.38)" xlink:href="#linear-gradient"/><linearGradient id="linear-gradient-14" x1="844.81" y1="86.79" x2="844.81" y2="224.72" gradientTransform="translate(1689.62 411.39) rotate(180)" xlink:href="#linear-gradient"/><linearGradient id="linear-gradient-15" x1="851.11" y1="87.02" x2="851.11" y2="224.95" gradientTransform="translate(1609.29 -245.3) rotate(138.51)" xlink:href="#linear-gradient"/><linearGradient id="linear-gradient-16" x1="819.45" y1="83.59" x2="819.45" y2="221.52" gradientTransform="translate(1638.91 349.09) rotate(180)" xlink:href="#linear-gradient"/><linearGradient id="linear-gradient-17" x1="810.45" y1="101.12" x2="810.45" y2="239.05" gradientTransform="matrix(-0.75, 0.67, -0.66, -0.76, 1539.82, -277.82)" xlink:href="#linear-gradient"/><linearGradient id="linear-gradient-18" x1="783.58" y1="39.69" x2="783.58" y2="396.01" xlink:href="#linear-gradient"/><linearGradient id="linear-gradient-19" x1="783.28" y1="39.69" x2="783.28" y2="396.01" xlink:href="#linear-gradient"/><linearGradient id="linear-gradient-20" x1="1756.56" y1="-39.26" x2="1756.56" y2="255.55" xlink:href="#linear-gradient"/><linearGradient id="linear-gradient-21" x1="1313.15" y1="-4.57" x2="1313.15" y2="290.24" gradientTransform="translate(1467.63 -1158.67) rotate(90)" xlink:href="#linear-gradient"/><linearGradient id="linear-gradient-22" x1="1217.66" y1="-3.42" x2="1217.66" y2="291.39" gradientTransform="translate(830.88 -729.69) rotate(36.91)" xlink:href="#linear-gradient"/><linearGradient id="linear-gradient-23" x1="1235.63" y1="-3.42" x2="1235.63" y2="291.39" gradientTransform="translate(1439.65 -1024.28) rotate(90)" xlink:href="#linear-gradient"/><linearGradient id="linear-gradient-24" x1="1726.88" y1="-39.26" x2="1726.88" y2="255.55" xlink:href="#linear-gradient"/><linearGradient id="linear-gradient-25" x1="1317.59" y1="-4.57" x2="1317.59" y2="290.24" gradientTransform="translate(1433.49 -1201.68) rotate(90)" xlink:href="#linear-gradient"/><linearGradient id="linear-gradient-26" x1="1724.02" y1="-38.03" x2="1724.02" y2="256.78" xlink:href="#linear-gradient"/><linearGradient id="linear-gradient-27" x1="1310.89" y1="-3.33" x2="1310.89" y2="291.47" gradientTransform="translate(1356.44 -1265.34) rotate(90)" xlink:href="#linear-gradient"/><linearGradient id="linear-gradient-28" x1="1277.16" y1="-3.33" x2="1277.16" y2="291.47" gradientTransform="translate(2163.24 -868.05) rotate(131.49)" xlink:href="#linear-gradient"/><linearGradient id="linear-gradient-29" x1="1682.27" y1="-39.26" x2="1682.27" y2="255.55" xlink:href="#linear-gradient"/><linearGradient id="linear-gradient-30" x1="1295.45" y1="-4.57" x2="1295.45" y2="290.24" gradientTransform="translate(1380.64 -1210.26) rotate(90)" xlink:href="#linear-gradient"/><linearGradient id="linear-gradient-31" x1="1237.06" y1="-4.57" x2="1237.06" y2="290.24" gradientTransform="translate(2126.41 -771.76) rotate(131.49)" xlink:href="#linear-gradient"/><linearGradient id="linear-gradient-32" x1="1757.18" y1="-39.26" x2="1757.18" y2="255.55" xlink:href="#linear-gradient"/><linearGradient id="linear-gradient-33" x1="1319.47" y1="-4.57" x2="1319.47" y2="290.24" gradientTransform="translate(1248.37 1390.56) rotate(-90)" xlink:href="#linear-gradient"/><linearGradient id="linear-gradient-34" x1="1304.22" y1="-4.57" x2="1304.22" y2="290.24" gradientTransform="translate(2118.11 1088.32) rotate(-131.49)" xlink:href="#linear-gradient"/><linearGradient id="linear-gradient-35" x1="1664.12" y1="-50.53" x2="1664.12" y2="244.28" xlink:href="#linear-gradient"/><linearGradient id="linear-gradient-36" x1="1263.15" y1="-15.83" x2="1263.15" y2="278.97" gradientTransform="translate(1088.43 1437.87) rotate(-90)" xlink:href="#linear-gradient"/><linearGradient id="linear-gradient-37" x1="1219.23" y1="-15.83" x2="1219.23" y2="278.97" gradientTransform="translate(1901.47 1191.91) rotate(-131.49)" xlink:href="#linear-gradient"/><linearGradient id="linear-gradient-38" x1="1375.15" y1="-4.57" x2="1375.15" y2="290.24" xlink:href="#linear-gradient"/><linearGradient id="linear-gradient-39" x1="1381.26" y1="-4.57" x2="1381.26" y2="290.24" xlink:href="#linear-gradient"/><linearGradient id="linear-gradient-40" x1="1778.57" y1="-39.26" x2="1778.57" y2="255.55" xlink:href="#linear-gradient"/></defs><path class="cls-1" d="M380.05,209.07V186.31a3.36,3.36,0,0,0-2.87-3.33l-8.91-1.31a11.27,11.27,0,0,1-9.33-8.52,110.39,110.39,0,0,0-215.07,1.61,11.24,11.24,0,0,1-8.37,8.43l-9.25,2.21a3.37,3.37,0,0,0-2.58,3.27v22.77a3.38,3.38,0,0,0,2.88,3.33l16.18,2.37a109.76,109.76,0,0,0,16.62,42.29,11.26,11.26,0,0,1,.16,12.06l-4.7,7.65a3.37,3.37,0,0,0,.49,4.14l16.1,16.1a3.35,3.35,0,0,0,4.38.32l7.06-5.25a11.27,11.27,0,0,1,12.5-.64A109.47,109.47,0,0,0,230,307.13a11.24,11.24,0,0,1,8.71,8.43l2.07,8.65a3.36,3.36,0,0,0,3.27,2.58h22.76a3.36,3.36,0,0,0,3.33-2.88l1.33-9a11.32,11.32,0,0,1,8.33-9.28A109.78,109.78,0,0,0,309.16,293,11.3,11.3,0,0,1,321,293l8.46,5.2a3.36,3.36,0,0,0,4.13-.49l16.1-16.1a3.36,3.36,0,0,0,.32-4.39l-4.77-6.42a11.29,11.29,0,0,1-.46-12.8,109.75,109.75,0,0,0,14.53-34.9,11.24,11.24,0,0,1,8.36-8.41l9.82-2.35A3.36,3.36,0,0,0,380.05,209.07ZM322.83,268.4l-1.71,1.71a99.41,99.41,0,0,1-136.83,2.11l-6-6.05a99.59,99.59,0,1,1,144.58,2.23Z" transform="translate(461.38 -34.69)"/><path class="cls-1" d="M123.4,188.1v22.76a3.37,3.37,0,0,0,2.88,3.33l8.91,1.31a11.26,11.26,0,0,1,9.32,8.52,110.39,110.39,0,0,0,215.08-1.62A11.2,11.2,0,0,1,368,214l9.25-2.21a3.37,3.37,0,0,0,2.58-3.27V185.73a3.36,3.36,0,0,0-2.87-3.33L360.72,180a109.53,109.53,0,0,0-16.61-42.29,11.24,11.24,0,0,1-.17-12.06l4.7-7.66a3.33,3.33,0,0,0-.49-4.13l-16.09-16.1a3.36,3.36,0,0,0-4.39-.32l-7.06,5.25a11.27,11.27,0,0,1-12.5.64A109.41,109.41,0,0,0,273.45,90a11.25,11.25,0,0,1-8.71-8.43L262.67,73a3.36,3.36,0,0,0-3.27-2.58H236.63a3.37,3.37,0,0,0-3.33,2.87l-1.33,9a11.3,11.3,0,0,1-8.33,9.28,109.91,109.91,0,0,0-29.35,12.57,11.28,11.28,0,0,1-11.82,0L174,99a3.37,3.37,0,0,0-4.14.49l-16.1,16.1a3.36,3.36,0,0,0-.32,4.38l4.78,6.43a11.27,11.27,0,0,1,.45,12.8,110,110,0,0,0-14.53,34.9,11.18,11.18,0,0,1-8.36,8.4L126,184.82A3.38,3.38,0,0,0,123.4,188.1Zm57.23-59.33,1.71-1.71A99.39,99.39,0,0,1,319.16,125l6,6a99.6,99.6,0,1,1-144.58-2.22Z" transform="translate(461.38 -34.69)"/><path class="cls-2" d="M335.52,198.59a83.8,83.8,0,0,1-167.59,0c0-.19,0-.39,0-.58l45.26-1.35L168,195.31a82.89,82.89,0,0,1,6.2-28.59l82.66-2.48-80.46-2.41A83.82,83.82,0,0,1,308.49,137l-67.31,2,71.53,2.14a83.69,83.69,0,0,1,21,40.15L241.18,184l93.51,2.81A83,83,0,0,1,335.52,198.59Z" transform="translate(461.38 -34.69)"/><path class="cls-3" d="M251.35,164.88s-7.14-80.22,84.59-76.25c0,0-17.48,10.58-22.64,38.05s-39.31,19.13-52,50.11c0,0,7.81-41.7,32.3-67.11,0,0-41.69,32.56-42.36,102,0,0,.93-48.44-23.69-64.33,0,0,7.78,7.54,15.88,31.77,0,0-10.32-9.93-20.25-11.52s-7.94-7.94-13.5-26.2S193,121.59,193,121.59,234.68,120.8,251.35,164.88Z" transform="translate(461.38 -34.69)"/><path class="cls-4" d="M228.66,289.69l.89.27-.9-.26c-.8-.25-1.61-.5-2.4-.78C227.05,289.19,227.85,289.45,228.66,289.69Z" transform="translate(461.38 -34.69)"/><path class="cls-4" d="M231.47,290.5l-1.92-.54Z" transform="translate(461.38 -34.69)"/><path class="cls-4" d="M247.87,293.34c.59.05,1.2.09,1.81.12-1.21-.06-2.41-.16-3.61-.28Z" transform="translate(461.38 -34.69)"/><path class="cls-4" d="M343.7,222.78v0l0,0,0,0,.06,0Z" transform="translate(461.38 -34.69)"/><path class="cls-5" d="M228.66,289.69l.89.27-.9-.26c-.8-.25-1.61-.5-2.4-.78C227.05,289.19,227.85,289.45,228.66,289.69Z" transform="translate(461.38 -34.69)"/><path class="cls-5" d="M231.47,290.5l-1.92-.54Z" transform="translate(461.38 -34.69)"/><path class="cls-5" d="M247.87,293.34c.59.05,1.2.09,1.81.12-1.21-.06-2.41-.16-3.61-.28Z" transform="translate(461.38 -34.69)"/><path class="cls-1" d="M228.66,289.69l.89.27-.9-.26Z" transform="translate(461.38 -34.69)"/><path class="cls-1" d="M231.47,290.5l-1.92-.54Z" transform="translate(461.38 -34.69)"/><path class="cls-1" d="M247.87,293.34c.59.05,1.2.09,1.81.12-1.21-.06-2.41-.16-3.61-.28Z" transform="translate(461.38 -34.69)"/><path class="cls-1" d="M343.7,222.78v0l0,0,0,0,.06,0Z" transform="translate(461.38 -34.69)"/><path class="cls-6" d="M343.7,222.78v0l0,0Z" transform="translate(461.38 -34.69)"/><path class="cls-4" d="M340.27,222.78a0,0,0,0,0,0,0A90.8,90.8,0,0,1,259,293.34c-2.41.19-4.85.29-7.3.29a90.29,90.29,0,0,1-51.19-15.81,90.77,90.77,0,0,1,139.68-55.06l.05,0Z" transform="translate(461.38 -34.69)"/><path class="cls-7" d="M340.26,222.8A90.8,90.8,0,0,1,259,293.34c-2.41.19-4.85.29-7.3.29a90.29,90.29,0,0,1-51.19-15.81,90.77,90.77,0,0,1,139.68-55.06l0,0Z" transform="translate(461.38 -34.69)"/><path class="cls-8" d="M340.27,222.78a0,0,0,0,0,0,0A90.8,90.8,0,0,1,259,293.34c-2.41.19-4.85.29-7.3.29a90.91,90.91,0,0,1-26.5-3.93,90.85,90.85,0,0,1,115-66.94l.05,0Z" transform="translate(461.38 -34.69)"/><path class="cls-3" d="M340.27,222.78a0,0,0,0,0,0,0A90.8,90.8,0,0,1,259,293.34a90.82,90.82,0,0,1,81.21-70.56h0Z" transform="translate(461.38 -34.69)"/><path class="cls-4" d="M249.06,213.86a84.4,84.4,0,0,0-50.36,62.66,90.84,90.84,0,0,1-35.51-53.72v0h0l.06,0a90.85,90.85,0,0,1,85.81-8.9Z" transform="translate(461.38 -34.69)"/><path class="cls-4" d="M264.6,292.72c-1.18.17-2.38.32-3.57.44C262.22,293,263.41,292.89,264.6,292.72Z" transform="translate(461.38 -34.69)"/><path class="cls-4" d="M274.08,290.85q-2,.51-4,.93Q272.1,291.36,274.08,290.85Z" transform="translate(461.38 -34.69)"/><path class="cls-4" d="M280.64,288.92c-.8.28-1.6.53-2.4.78l-.9.26.89-.27C279,289.45,279.84,289.19,280.64,288.92Z" transform="translate(461.38 -34.69)"/><path class="cls-4" d="M302.93,277.81h0a90.87,90.87,0,0,1-17.86,9.49A91.44,91.44,0,0,0,302.93,277.81Z" transform="translate(461.38 -34.69)"/><path class="cls-7" d="M249.06,213.86a84.4,84.4,0,0,0-50.36,62.66,90.84,90.84,0,0,1-35.51-53.72l0,0,0,0a90.85,90.85,0,0,1,85.81-8.9Z" transform="translate(461.38 -34.69)"/><path class="cls-5" d="M264.6,292.72c-1.18.17-2.38.32-3.57.44C262.22,293,263.41,292.89,264.6,292.72Z" transform="translate(461.38 -34.69)"/><path class="cls-5" d="M274.08,290.85q-2,.51-4,.93Q272.1,291.36,274.08,290.85Z" transform="translate(461.38 -34.69)"/><path class="cls-5" d="M280.64,288.92c-.8.28-1.6.53-2.4.78l-.9.26.89-.27C279,289.45,279.84,289.19,280.64,288.92Z" transform="translate(461.38 -34.69)"/><path class="cls-5" d="M302.93,277.81h0a90.87,90.87,0,0,1-17.86,9.49A91.44,91.44,0,0,0,302.93,277.81Z" transform="translate(461.38 -34.69)"/><path class="cls-8" d="M227.45,227.06a84.3,84.3,0,0,0-28.75,49.46,90.84,90.84,0,0,1-35.51-53.72v0h0l.06,0a91.11,91.11,0,0,1,64.2,4.3Z" transform="translate(461.38 -34.69)"/><path class="cls-1" d="M264.6,292.72c-1.18.17-2.38.32-3.57.44C262.22,293,263.41,292.89,264.6,292.72Z" transform="translate(461.38 -34.69)"/><path class="cls-1" d="M274.08,290.85q-2,.51-4,.93Q272.1,291.36,274.08,290.85Z" transform="translate(461.38 -34.69)"/><path class="cls-1" d="M278.24,289.7l-.9.26.89-.27Z" transform="translate(461.38 -34.69)"/><path class="cls-3" d="M213,242.72a83.68,83.68,0,0,0-14.28,33.8,90.84,90.84,0,0,1-35.51-53.72v0h0A90.28,90.28,0,0,1,213,242.72Z" transform="translate(461.38 -34.69)"/><circle class="cls-9" cx="1212.04" cy="103.36" r="12.1"/><circle class="cls-10" cx="1303.63" cy="94.32" r="15.09"/><circle class="cls-11" cx="1216.66" cy="66" r="15.09"/><circle class="cls-12" cx="1178.33" cy="125.32" r="15.09"/><circle class="cls-13" cx="1251.69" cy="116.23" r="9.79"/><circle class="cls-14" cx="1323.02" cy="134.46" r="13.68"/><rect class="cls-12" x="1177.01" y="132.41" width="2.64" height="33.94"/><rect class="cls-9" x="1210.72" y="112.07" width="2.64" height="66.44"/><rect class="cls-15" x="1265.47" y="134.46" width="2.64" height="41.22"/><rect class="cls-16" x="797.87" y="152.72" width="2.64" height="19.79" transform="translate(554.21 535.61) rotate(-41.49)"/><rect class="cls-17" x="1235.05" y="85.69" width="2.64" height="80.66"/><rect class="cls-18" x="767.27" y="103.56" width="2.64" height="20.3" transform="translate(578.94 503.06) rotate(-41.49)"/><rect class="cls-19" x="843.49" y="188.73" width="2.64" height="33.94" transform="translate(2151 376.7) rotate(-180)"/><rect class="cls-20" x="849.78" y="172.17" width="2.64" height="19.95" transform="translate(1829.31 847.78) rotate(-138.51)"/><rect class="cls-21" x="818.13" y="150.62" width="2.64" height="47.85" transform="translate(2100.29 314.39) rotate(-180)"/><rect class="cls-22" x="824.55" y="133.8" width="2.64" height="20.22" transform="translate(1810.5 764.19) rotate(-138.51)"/><path class="cls-23" d="M924,195.88V171a3.68,3.68,0,0,0-3.15-3.65l-9.75-1.43a12.36,12.36,0,0,1-10.22-9.34,120.91,120.91,0,0,0-235.57,1.77,12.3,12.3,0,0,1-9.16,9.23L646,170a3.69,3.69,0,0,0-2.83,3.59v24.93a3.69,3.69,0,0,0,3.15,3.65l17.72,2.6A120.26,120.26,0,0,0,682.24,251a12.3,12.3,0,0,1,.18,13.21l-5.14,8.38a3.66,3.66,0,0,0,.53,4.53l17.63,17.63a3.67,3.67,0,0,0,4.81.35L708,289.4a12.37,12.37,0,0,1,13.7-.71,120,120,0,0,0,38,14.59,12.32,12.32,0,0,1,9.54,9.23l2.26,9.48a3.69,3.69,0,0,0,3.59,2.83H800a3.69,3.69,0,0,0,3.65-3.15l1.45-9.91a12.41,12.41,0,0,1,9.13-10.16,120.51,120.51,0,0,0,32.15-13.78,12.37,12.37,0,0,1,12.94,0l9.26,5.69a3.69,3.69,0,0,0,4.54-.54l17.63-17.63a3.68,3.68,0,0,0,.35-4.8l-5.23-7a12.34,12.34,0,0,1-.5-14,120,120,0,0,0,15.91-38.23,12.28,12.28,0,0,1,9.16-9.2l10.76-2.58A3.68,3.68,0,0,0,924,195.88Zm-62.68,65-1.87,1.87A108.88,108.88,0,0,1,709.56,265L703,258.42a108.65,108.65,0,0,1-28.73-76.16c1.27-57.83,48.08-104.95,105.91-106.59A109,109,0,0,1,861.3,260.86Z" transform="translate(461.38 -34.69)"/><path class="cls-24" d="M642.87,172.9v24.94a3.67,3.67,0,0,0,3.15,3.64l9.76,1.44A12.33,12.33,0,0,1,666,212.25a120.91,120.91,0,0,0,235.57-1.77,12.3,12.3,0,0,1,9.16-9.23l10.13-2.42a3.69,3.69,0,0,0,2.83-3.58V170.31a3.68,3.68,0,0,0-3.15-3.64l-17.72-2.61a120.37,120.37,0,0,0-18.2-46.31,12.3,12.3,0,0,1-.18-13.21l5.14-8.39a3.69,3.69,0,0,0-.53-4.53L871.42,74a3.7,3.7,0,0,0-4.81-.35l-7.73,5.75a12.35,12.35,0,0,1-13.69.7,120,120,0,0,0-38-14.59,12.32,12.32,0,0,1-9.54-9.23l-2.27-9.48A3.68,3.68,0,0,0,791.83,44H766.89a3.69,3.69,0,0,0-3.64,3.15L761.79,57a12.38,12.38,0,0,1-9.12,10.16A120.37,120.37,0,0,0,720.52,81a12.35,12.35,0,0,1-12.94,0l-9.27-5.68a3.66,3.66,0,0,0-4.53.53L676.15,93.45a3.7,3.7,0,0,0-.35,4.81l5.23,7a12.39,12.39,0,0,1,.5,14,120.15,120.15,0,0,0-15.92,38.22,12.28,12.28,0,0,1-9.15,9.21l-10.76,2.57A3.69,3.69,0,0,0,642.87,172.9Zm62.68-65,1.87-1.87a108.88,108.88,0,0,1,149.87-2.31l6.62,6.62a108.71,108.71,0,0,1,28.73,76.16c-1.28,57.83-48.08,105-105.91,106.6a109,109,0,0,1-81.18-185.2Z" transform="translate(461.38 -34.69)"/><path class="cls-7" d="M784.56,160.5s-5-56.43,59.51-53.64c0,0-12.3,7.44-15.93,26.77s-27.66,13.46-36.6,35.25c0,0,5.5-29.33,22.73-47.21,0,0-29.33,22.9-29.8,71.79,0,0,.65-34.08-16.67-45.25,0,0,5.47,5.3,11.17,22.35,0,0-7.26-7-14.25-8.11s-5.58-5.58-9.49-18.43-11.74-14-11.74-14S772.83,129.49,784.56,160.5Z" transform="translate(461.38 -34.69)"/><path class="cls-4" d="M758.16,284.18l1,.29-1-.28c-.88-.27-1.76-.55-2.63-.85Q756.84,283.79,758.16,284.18Z" transform="translate(461.38 -34.69)"/><path class="cls-4" d="M761.24,285.07c-.7-.19-1.41-.39-2.11-.6C759.84,284.68,760.54,284.89,761.24,285.07Z" transform="translate(461.38 -34.69)"/><path class="cls-4" d="M779.2,288.18c.66.05,1.32.1,2,.13-1.33-.07-2.65-.18-4-.31C777.89,288.06,778.54,288.13,779.2,288.18Z" transform="translate(461.38 -34.69)"/><path class="cls-4" d="M884.17,210.89v0l0,0h0Z" transform="translate(461.38 -34.69)"/><path class="cls-5" d="M758.16,284.18l1,.29-1-.28c-.88-.27-1.76-.55-2.63-.85Q756.84,283.79,758.16,284.18Z" transform="translate(461.38 -34.69)"/><path class="cls-5" d="M761.24,285.07c-.7-.19-1.41-.39-2.11-.6C759.84,284.68,760.54,284.89,761.24,285.07Z" transform="translate(461.38 -34.69)"/><path class="cls-5" d="M779.2,288.18c.66.05,1.32.1,2,.13-1.33-.07-2.65-.18-4-.31C777.89,288.06,778.54,288.13,779.2,288.18Z" transform="translate(461.38 -34.69)"/><path class="cls-1" d="M758.16,284.18l1,.29-1-.28Z" transform="translate(461.38 -34.69)"/><path class="cls-1" d="M761.24,285.07c-.7-.19-1.41-.39-2.11-.6C759.84,284.68,760.54,284.89,761.24,285.07Z" transform="translate(461.38 -34.69)"/><path class="cls-1" d="M779.2,288.18c.66.05,1.32.1,2,.13-1.33-.07-2.65-.18-4-.31C777.89,288.06,778.54,288.13,779.2,288.18Z" transform="translate(461.38 -34.69)"/><path class="cls-1" d="M884.17,210.89v0l0,0h0Z" transform="translate(461.38 -34.69)"/><path class="cls-6" d="M884.17,210.89v0l0,0h0Z" transform="translate(461.38 -34.69)"/><path class="cls-4" d="M880.41,210.89v0a99.45,99.45,0,0,1-89,77.26q-4,.31-8,.32a99,99,0,0,1-56.07-17.32,99.41,99.41,0,0,1,153-60.3h.07Z" transform="translate(461.38 -34.69)"/><path class="cls-7" d="M880.4,210.92a99.45,99.45,0,0,1-89,77.26q-4,.31-8,.32a99,99,0,0,1-56.07-17.32,99.41,99.41,0,0,1,153-60.3h0Z" transform="translate(461.38 -34.69)"/><path class="cls-8" d="M880.41,210.89v0a99.45,99.45,0,0,1-89,77.26q-4,.31-8,.32a99.37,99.37,0,0,1-29-4.31,99.49,99.49,0,0,1,126-73.31h.07Z" transform="translate(461.38 -34.69)"/><path class="cls-3" d="M880.41,210.89v0a99.45,99.45,0,0,1-89,77.26,99.48,99.48,0,0,1,89-77.29h0Z" transform="translate(461.38 -34.69)"/><path class="cls-4" d="M780.51,201.13a92.38,92.38,0,0,0-55.16,68.62,99.46,99.46,0,0,1-38.9-58.83v0h.07a99.47,99.47,0,0,1,94-9.75Z" transform="translate(461.38 -34.69)"/><path class="cls-7" d="M780.51,201.13a92.38,92.38,0,0,0-55.16,68.62,99.46,99.46,0,0,1-38.9-58.83l0,0h0a99.47,99.47,0,0,1,94-9.75Z" transform="translate(461.38 -34.69)"/><path class="cls-8" d="M756.84,215.58a92.26,92.26,0,0,0-31.49,54.17,99.46,99.46,0,0,1-38.9-58.83v0h.07a99.74,99.74,0,0,1,70.32,4.7Z" transform="translate(461.38 -34.69)"/><path class="cls-1" d="M812.46,284.19l-1,.28,1-.29Z" transform="translate(461.38 -34.69)"/><path class="cls-3" d="M741,232.74a91.68,91.68,0,0,0-15.63,37,99.46,99.46,0,0,1-38.9-58.83v0h0A98.8,98.8,0,0,1,741,232.74Z" transform="translate(461.38 -34.69)"/><circle class="cls-25" cx="1756.56" cy="119.79" r="11.27"/><rect class="cls-26" x="1312.16" y="141.81" width="1.97" height="25.34" transform="translate(1620.05 1432.94) rotate(-90)"/><circle class="cls-27" cx="1681.12" cy="165.87" r="11.27"/><rect class="cls-28" x="1233.12" y="198.68" width="1.97" height="25.34" transform="translate(785.41 1036.57) rotate(-53.09)"/><circle class="cls-29" cx="1726.88" cy="81.21" r="15.03"/><rect class="cls-30" x="1315.95" y="74.64" width="3.28" height="82.53" transform="translate(1663.06 1398.8) rotate(-90)"/><circle class="cls-31" cx="1724.02" cy="29.63" r="12.17"/><rect class="cls-32" x="1309.25" y="19.95" width="3.28" height="51.21" transform="translate(1726.72 1321.74) rotate(-90)"/><rect class="cls-33" x="1275.52" y="40.99" width="3.28" height="24.59" transform="translate(2544.8 1010.52) rotate(-131.49)"/><circle class="cls-34" cx="1682.27" cy="74.98" r="18.75"/><rect class="cls-35" x="1293.81" y="35.09" width="3.28" height="100.2" transform="translate(1671.64 1345.95) rotate(-90)"/><rect class="cls-36" x="1235.42" y="80.53" width="3.28" height="25.21" transform="translate(2448.27 1046.74) rotate(-131.49)"/><circle class="cls-37" cx="1757.18" cy="25.5" r="8.86"/><rect class="cls-38" x="1318.61" y="60.1" width="1.71" height="21.98" transform="translate(1851.94 -1283.07) rotate(90)"/><rect class="cls-39" x="1303.36" y="60.55" width="1.71" height="12.92" transform="translate(2679.89 -900.18) rotate(131.49)"/><circle class="cls-40" cx="1664.12" cy="114.79" r="16.7"/><rect class="cls-41" x="1261.69" y="138.22" width="2.92" height="73" transform="translate(1899.25 -1123.13) rotate(90)"/><rect class="cls-42" x="1217.77" y="156.42" width="2.92" height="22.39" transform="translate(2613.95 -669.27) rotate(131.49)"/><path class="cls-43" d="M1320.89,246.36l15.19-.46-15.19-.44V209.71L1429.41,213a120.7,120.7,0,0,1-108.52,67.78Z" transform="translate(461.38 -34.69)"/><path class="cls-44" d="M1432.59,205.93l-111.7,3.34V181.45l15.19-.46-15.19-.46V39.28A120.73,120.73,0,0,1,1441.64,160c0,.27,0,.56,0,.83l-65.2,1.95,65.1,1.95A119.17,119.17,0,0,1,1432.59,205.93Z" transform="translate(461.38 -34.69)"/><polygon class="cls-45" points="1774.86 174.8 1782.27 174.57 1782.27 175.02 1774.86 174.8"/><path class="cls-4" d="M1356.58,143s-10.13-113.68,119.87-108c0,0-24.76,15-32.08,53.92s-55.71,27.12-73.72,71c0,0,11.07-59.1,45.77-95.12,0,0-59.09,46.15-60,144.64,0,0,1.31-68.66-33.58-91.17,0,0,11,10.68,22.51,45,0,0-14.63-14.07-28.7-16.32s-11.26-11.25-19.14-37.14-23.63-28.14-23.63-28.14S1332.94,80.48,1356.58,143Z" transform="translate(461.38 -34.69)"/><path class="cls-4" d="M1446.67,193.13a.13.13,0,0,0,0,.05,168.78,168.78,0,0,1-151,131.1q-6.72.54-13.58.54a167.67,167.67,0,0,1-95.14-29.39A168.7,168.7,0,0,1,1446.55,193.1l.11,0Z" transform="translate(461.38 -34.69)"/><path class="cls-4" d="M1446.66,193.18a168.78,168.78,0,0,1-151,131.1q-6.72.54-13.58.54a167.67,167.67,0,0,1-95.14-29.39A168.7,168.7,0,0,1,1446.55,193.1l.06,0Z" transform="translate(461.38 -34.69)"/><path class="cls-46" d="M1446.67,193.13a.13.13,0,0,0,0,.05,168.78,168.78,0,0,1-151,131.1q-6.72.54-13.58.54a168.92,168.92,0,0,1-49.25-7.3A168.85,168.85,0,0,1,1446.55,193.1l.11,0Z" transform="translate(461.38 -34.69)"/><path class="cls-1" d="M1446.67,193.13a.13.13,0,0,0,0,.05,168.78,168.78,0,0,1-151,131.1,168.8,168.8,0,0,1,150.95-131.15h.06Z" transform="translate(461.38 -34.69)"/><path class="cls-47" d="M1213.4,377.38s-5.71-32.05,36.28-30.81c0,0-3.23,35.53-34.79,35.28,0,0,10.2-19.35,20.87-27.33C1235.76,354.52,1224.58,353.78,1213.4,377.38Z" transform="translate(461.38 -34.69)"/><text class="cls-48" transform="translate(1604.2 414.44)">GO</text><polygon class="cls-7" points="1765.92 412.88 1766.96 344 1814.26 344 1809.72 363.24 1786.97 364.02 1787.49 373.89 1803.59 371.04 1800.49 382.73 1786.19 384.55 1787.49 412.88 1765.92 412.88"/><path class="cls-7" d="M1385.63,449.14l-7.27-52-23.88,1.3-10.7,49.13,17.42,1.56.26-8.06H1369l-1,8.06Zm-23.39-17.94,2.47-14.55L1369,431.2Z" transform="translate(461.38 -34.69)"/><path class="cls-7" d="M1419.16,425.22s24.17-20.79,6.24-29.11-35,2.08-35,2.08v50.95l18.11-1.56V430.16l13.25,17.42,11.7-8.06Zm-11.35-2.08V412.23c8.84-2.6,11.61.91,11.61.91C1418.38,423.06,1407.81,423.14,1407.81,423.14Z" transform="translate(461.38 -34.69)"/><path class="cls-7" d="M1435.08,447.58s5.4-41.33,5.4-49.13l20.53-1.3,4.16,19.5,3.12-18.46,21.31-1s6.76,45.75,9.36,49.39l-20.54,1-4.15-25.21-2.34,25.21h-9.62l-5.46-25.21-3.38,25.21Z" transform="translate(461.38 -34.69)"/><path class="cls-1" d="M139,366.4v10a24.32,24.32,0,0,1-2.48,11.24,17.9,17.9,0,0,1-7,7.53,20.53,20.53,0,0,1-10.54,2.66,22,22,0,0,1-10.65-2.5,17.59,17.59,0,0,1-7.12-7.08,21.54,21.54,0,0,1-2.52-10.59v-16.9a24.35,24.35,0,0,1,2.48-11.23,18,18,0,0,1,7-7.51,20.5,20.5,0,0,1,10.54-2.65,19.88,19.88,0,0,1,9.08,2.1,19.36,19.36,0,0,1,6.95,6,22.42,22.42,0,0,1,3.78,8.94h-8.71a12.33,12.33,0,0,0-2.4-4.94,11.36,11.36,0,0,0-4-3.15,10.94,10.94,0,0,0-4.72-1.09,11.41,11.41,0,0,0-6.23,1.7,11.17,11.17,0,0,0-4.14,4.75,16.32,16.32,0,0,0-1.45,7.11v16.9a13.53,13.53,0,0,0,1.49,6.48,10.6,10.6,0,0,0,4.24,4.31A12.62,12.62,0,0,0,118.9,390a11.89,11.89,0,0,0,6.23-1.6,10.49,10.49,0,0,0,4.13-4.63,16.5,16.5,0,0,0,1.46-7.21v-2.48H119.1V366.4Z" transform="translate(461.38 -34.69)"/><path class="cls-1" d="M158.77,395.22a17.92,17.92,0,0,1-7.07-7.41,23.58,23.58,0,0,1-2.5-11.09V360.49a23.58,23.58,0,0,1,2.5-11.09,17.84,17.84,0,0,1,7.07-7.4,22.59,22.59,0,0,1,21.12,0,17.9,17.9,0,0,1,7.07,7.4,23.7,23.7,0,0,1,2.5,11.09v16.23a23.7,23.7,0,0,1-2.5,11.09,18,18,0,0,1-7.07,7.41,22.59,22.59,0,0,1-21.12,0Zm16.8-6.9a10.73,10.73,0,0,0,4.18-4.53,15,15,0,0,0,1.48-6.79V360.21a15,15,0,0,0-1.48-6.79,10.73,10.73,0,0,0-4.18-4.53,13,13,0,0,0-12.49,0,10.64,10.64,0,0,0-4.17,4.53,14.85,14.85,0,0,0-1.48,6.79V377a14.82,14.82,0,0,0,1.48,6.79,10.64,10.64,0,0,0,4.17,4.53,13,13,0,0,0,12.49,0Z" transform="translate(461.38 -34.69)"/><path class="cls-1" d="M224.13,340h8v57.28h-8Zm3.94,0h32.1v7.64h-32.1Zm0,25.52h27.77v7.65H228.07Z" transform="translate(461.38 -34.69)"/><path class="cls-1" d="M280.9,340h6.85l21.12,57.28H300.2L284.32,351l-15.87,46.21h-8.67ZM269.51,377h30.14v7.64H269.51Z" transform="translate(461.38 -34.69)"/><path class="cls-1" d="M317.53,339.93h8v57.32h-8ZM321,365.38h19.54a7.5,7.5,0,0,0,4.06-1.11,7.29,7.29,0,0,0,2.74-3.13,11.84,11.84,0,0,0,0-9.34,7.38,7.38,0,0,0-2.72-3.13,7.55,7.55,0,0,0-4.08-1.1H321v-7.64h19.22A17.93,17.93,0,0,1,349,342a14.31,14.31,0,0,1,5.83,5.81,19.17,19.17,0,0,1,0,17.37A14.48,14.48,0,0,1,349,371a17.83,17.83,0,0,1-8.69,2H321Zm15.6,5.87,8-1.82,14.65,27.82h-9.53Z" transform="translate(461.38 -34.69)"/><path class="cls-1" d="M411.29,340h7.53v57.28H411v-42.9l.39,2.52-14.1,32.42h-5.59l-14.11-31.64.4-3.3v42.9h-7.84V340h7.52l16.82,37.82Z" transform="translate(461.38 -34.69)"/><text class="cls-49" transform="translate(1020.1 379.7)">GO <tspan class="cls-50" x="171.2" y="0">F</tspan><tspan x="225.79" y="0">arm.</tspan></text><path class="cls-1" d="M143.59,414v2.84a6.94,6.94,0,0,1-.7,3.19,5.17,5.17,0,0,1-2,2.14,5.85,5.85,0,0,1-3,.75,6.28,6.28,0,0,1-3-.71,4.93,4.93,0,0,1-2-2,6.07,6.07,0,0,1-.72-3v-4.79a6.91,6.91,0,0,1,.7-3.19,5.08,5.08,0,0,1,2-2.13,5.85,5.85,0,0,1,3-.75,5.62,5.62,0,0,1,2.58.59,5.46,5.46,0,0,1,2,1.7,6.32,6.32,0,0,1,1.08,2.54H141a3.44,3.44,0,0,0-.68-1.41,3.13,3.13,0,0,0-1.13-.89,3,3,0,0,0-1.34-.31,3.26,3.26,0,0,0-1.77.48,3.22,3.22,0,0,0-1.17,1.35,4.58,4.58,0,0,0-.41,2v4.79a3.82,3.82,0,0,0,.42,1.84,3.09,3.09,0,0,0,1.2,1.23,3.63,3.63,0,0,0,1.8.43,3.43,3.43,0,0,0,1.77-.45,3.05,3.05,0,0,0,1.17-1.31,4.66,4.66,0,0,0,.41-2.05v-.7H138V414Z" transform="translate(461.38 -34.69)"/><path class="cls-1" d="M149.06,422.34a4.1,4.1,0,0,1-1.74-1.78,6.09,6.09,0,0,1-.6-2.82v-1.31a6.73,6.73,0,0,1,.58-2.94,4.15,4.15,0,0,1,1.67-1.86,5.21,5.21,0,0,1,2.64-.63,4.22,4.22,0,0,1,2.48.72,4.51,4.51,0,0,1,1.57,2.11,9,9,0,0,1,.54,3.29v.77h-7.82v-1.84H154a3.9,3.9,0,0,0-.73-2.21,2.06,2.06,0,0,0-1.69-.79,2.46,2.46,0,0,0-2,.86,3.64,3.64,0,0,0-.71,2.4v1.48a3,3,0,0,0,.76,2.21,2.92,2.92,0,0,0,2.16.77,3.5,3.5,0,0,0,1.37-.28,4,4,0,0,0,1.22-.78l1.5,1.5a6.31,6.31,0,0,1-1.93,1.28,5.58,5.58,0,0,1-2.16.45A5.85,5.85,0,0,1,149.06,422.34Z" transform="translate(461.38 -34.69)"/><path class="cls-1" d="M158.44,411.17h5.23v2.05h-5.23Zm1.85,10.88a3.47,3.47,0,0,1-.65-2.3v-12h2.28v12a1,1,0,0,0,.17.65.57.57,0,0,0,.49.23h1.09v2.17h-1.32A2.56,2.56,0,0,1,160.29,422.05Z" transform="translate(461.38 -34.69)"/><path class="cls-1" d="M175.24,418.22a2.66,2.66,0,0,0,.62,1.89,2.27,2.27,0,0,0,1.75.66,2.42,2.42,0,0,0,1.73-.59,2.25,2.25,0,0,0,.62-1.69l.15,2.43a3.35,3.35,0,0,1-1.16,1.44,3.29,3.29,0,0,1-2,.58,3.67,3.67,0,0,1-3-1.24,5.2,5.2,0,0,1-1-3.48v-7.05h2.28Zm4.72-7.05h2.27v11.6H180Z" transform="translate(461.38 -34.69)"/><path class="cls-1" d="M185.69,411.17H188v16.32h-2.28ZM189,422.42a3,3,0,0,1-1.18-1.47l.15-2.43a2.78,2.78,0,0,0,.27,1.28,1.83,1.83,0,0,0,.78.8,2.49,2.49,0,0,0,1.23.28,2.25,2.25,0,0,0,1.75-.68,2.79,2.79,0,0,0,.62-1.95v-2.51a2.87,2.87,0,0,0-.62-2,2.2,2.2,0,0,0-1.75-.71,2.6,2.6,0,0,0-1.23.27,1.8,1.8,0,0,0-.78.79,2.68,2.68,0,0,0-.27,1.25l-.23-2.24a4.06,4.06,0,0,1,1.37-1.57A3.39,3.39,0,0,1,191,411a3.86,3.86,0,0,1,2.11.55,3.49,3.49,0,0,1,1.34,1.62,6.54,6.54,0,0,1,.46,2.56v2.52a6.21,6.21,0,0,1-.47,2.53,3.59,3.59,0,0,1-1.38,1.61,4.07,4.07,0,0,1-2.17.55A3.39,3.39,0,0,1,189,422.42Z" transform="translate(461.38 -34.69)"/><path class="cls-1" d="M204.8,422.05a3.31,3.31,0,0,1-1.06-2.7,3.25,3.25,0,0,1,1-2.58,4.3,4.3,0,0,1,2.94-.86H211l.16,1.83h-3.44a1.92,1.92,0,0,0-1.34.4,1.52,1.52,0,0,0-.44,1.21,1.5,1.5,0,0,0,.58,1.31,3.11,3.11,0,0,0,1.79.42,5.09,5.09,0,0,0,2-.28.9.9,0,0,0,.64-.87l.24,1.63a2.66,2.66,0,0,1-.75.78,3.16,3.16,0,0,1-1,.45,5.24,5.24,0,0,1-1.31.15A4.94,4.94,0,0,1,204.8,422.05Zm6-6.64a2.43,2.43,0,0,0-.61-1.77,2.28,2.28,0,0,0-1.73-.63,4.43,4.43,0,0,0-1.35.21,3.75,3.75,0,0,0-1.18.6l-1.67-1.15a4.39,4.39,0,0,1,1.74-1.23,6.18,6.18,0,0,1,2.4-.44,5.53,5.53,0,0,1,2.47.51,3.53,3.53,0,0,1,1.56,1.47,4.72,4.72,0,0,1,.54,2.33v7.46h-2.17Z" transform="translate(461.38 -34.69)"/><path class="cls-1" d="M216.49,411.17h2.28v11.6h-2.28Zm7,4.57a2.67,2.67,0,0,0-.63-1.9,2.78,2.78,0,0,0-3.52-.08,2.2,2.2,0,0,0-.61,1.67l-.24-2.24a4.15,4.15,0,0,1,1.41-1.62,3.41,3.41,0,0,1,1.92-.57,3.6,3.6,0,0,1,2.92,1.23,5.31,5.31,0,0,1,1,3.5v7h-2.28Z" transform="translate(461.38 -34.69)"/><path class="cls-1" d="M230.78,422.42a3.54,3.54,0,0,1-1.37-1.62,6.28,6.28,0,0,1-.47-2.55v-2.56a6.58,6.58,0,0,1,.46-2.56,3.46,3.46,0,0,1,1.34-1.61,3.86,3.86,0,0,1,2.11-.56,3.46,3.46,0,0,1,1.88.54,4,4,0,0,1,1.38,1.51l-.23,2.37a2.73,2.73,0,0,0-.27-1.26,1.83,1.83,0,0,0-.78-.8,2.49,2.49,0,0,0-1.23-.28,2.2,2.2,0,0,0-1.75.71,2.87,2.87,0,0,0-.62,2v2.52a2.8,2.8,0,0,0,.62,2,2.21,2.21,0,0,0,1.75.68,2.49,2.49,0,0,0,1.23-.28,1.93,1.93,0,0,0,.78-.82,2.86,2.86,0,0,0,.27-1.29L236,421a3.28,3.28,0,0,1-1.13,1.44A3.17,3.17,0,0,1,233,423,4.08,4.08,0,0,1,230.78,422.42Zm5.1-15.91h2.28v16.26h-2.28Z" transform="translate(461.38 -34.69)"/><path class="cls-1" d="M259.11,414v2.84a6.94,6.94,0,0,1-.7,3.19,5.17,5.17,0,0,1-2,2.14,5.82,5.82,0,0,1-3,.75,6.24,6.24,0,0,1-3-.71,5,5,0,0,1-2-2,6.07,6.07,0,0,1-.72-3v-4.79a6.91,6.91,0,0,1,.71-3.19,5.06,5.06,0,0,1,2-2.13,5.89,5.89,0,0,1,3-.75,5.55,5.55,0,0,1,2.57.59,5.49,5.49,0,0,1,2,1.7,6.3,6.3,0,0,1,1.07,2.54h-2.47a3.44,3.44,0,0,0-.68-1.41,3.21,3.21,0,0,0-1.13-.89,3,3,0,0,0-1.34-.31,3.24,3.24,0,0,0-1.77.48,3.09,3.09,0,0,0-1.17,1.35,4.58,4.58,0,0,0-.42,2v4.79a3.71,3.71,0,0,0,.43,1.84,3,3,0,0,0,1.2,1.23,3.59,3.59,0,0,0,1.79.43,3.43,3.43,0,0,0,1.77-.45,2.93,2.93,0,0,0,1.17-1.31,4.66,4.66,0,0,0,.42-2.05v-.7h-3.3V414Z" transform="translate(461.38 -34.69)"/><path class="cls-1" d="M264.45,422.35a3.92,3.92,0,0,1-1.64-1.73,6,6,0,0,1-.56-2.73V416a5.89,5.89,0,0,1,.56-2.7,4,4,0,0,1,1.64-1.72,6.05,6.05,0,0,1,5.17,0,3.93,3.93,0,0,1,1.63,1.72,5.88,5.88,0,0,1,.57,2.7v1.92a5.93,5.93,0,0,1-.57,2.71,3.93,3.93,0,0,1-1.63,1.72,6,6,0,0,1-5.17,0Zm4.43-2.33a3.07,3.07,0,0,0,.66-2.1V416a3,3,0,0,0-.66-2.09,2.68,2.68,0,0,0-3.7,0,3.06,3.06,0,0,0-.65,2.09v1.92a3.12,3.12,0,0,0,.65,2.1,2.66,2.66,0,0,0,3.7,0Z" transform="translate(461.38 -34.69)"/><path class="cls-1" d="M275.28,406.51h2.28v16.26h-2.28Zm1.12,0h9.11v2.17H276.4Zm0,7.25h7.89v2.17H276.4Z" transform="translate(461.38 -34.69)"/><path class="cls-1" d="M288.37,422.05a3.31,3.31,0,0,1-1.07-2.7,3.25,3.25,0,0,1,1-2.58,4.3,4.3,0,0,1,2.94-.86h3.3l.15,1.83h-3.44a1.93,1.93,0,0,0-1.34.4,1.56,1.56,0,0,0-.44,1.21,1.51,1.51,0,0,0,.59,1.31,3.05,3.05,0,0,0,1.78.42,5.09,5.09,0,0,0,1.95-.28.91.91,0,0,0,.65-.87l.23,1.63a2.76,2.76,0,0,1-.74.78,3.32,3.32,0,0,1-1,.45,5.16,5.16,0,0,1-1.3.15A4.92,4.92,0,0,1,288.37,422.05Zm6.05-6.64a2.47,2.47,0,0,0-.61-1.77,2.31,2.31,0,0,0-1.73-.63,4.49,4.49,0,0,0-1.36.21,3.86,3.86,0,0,0-1.18.6l-1.66-1.15a4.29,4.29,0,0,1,1.73-1.23A6.18,6.18,0,0,1,292,411a5.5,5.5,0,0,1,2.47.51,3.55,3.55,0,0,1,1.57,1.47,4.72,4.72,0,0,1,.54,2.33v7.46h-2.17Z" transform="translate(461.38 -34.69)"/><path class="cls-1" d="M300.05,411.17h2.28v11.6h-2.28Zm5.63,2.19a2.71,2.71,0,0,0-1.06-.19,2.32,2.32,0,0,0-1.69.59,2.26,2.26,0,0,0-.6,1.67l-.23-2.24a4.34,4.34,0,0,1,1.39-1.62,3.27,3.27,0,0,1,1.87-.57,4.11,4.11,0,0,1,1.44.23,3.25,3.25,0,0,1,1.12.67l-1.48,2A1.84,1.84,0,0,0,305.68,413.36Z" transform="translate(461.38 -34.69)"/><path class="cls-1" d="M309.83,411.17h2.28v11.6h-2.28Zm6.93,4.57a2.76,2.76,0,0,0-.6-1.9,2.2,2.2,0,0,0-1.72-.67,2.33,2.33,0,0,0-1.72.59,2.2,2.2,0,0,0-.61,1.67l-.24-2.24a4.15,4.15,0,0,1,1.41-1.62,3.38,3.38,0,0,1,1.91-.57,3.73,3.73,0,0,1,2.08.55,3.45,3.45,0,0,1,1.32,1.62,6.55,6.55,0,0,1,.45,2.56v7h-2.28Zm6.93,0a2.63,2.63,0,0,0-.64-1.9,2.32,2.32,0,0,0-1.78-.67,2.08,2.08,0,0,0-1.65.65,2.63,2.63,0,0,0-.58,1.83l-.46-2.24a4.54,4.54,0,0,1,1.45-1.78,3.38,3.38,0,0,1,2-.63,4,4,0,0,1,2.15.55,3.5,3.5,0,0,1,1.35,1.62,6.37,6.37,0,0,1,.46,2.56v7h-2.28Z" transform="translate(461.38 -34.69)"/><path class="cls-1" d="M329.05,420.38h2.39v2.39h-2.39Z" transform="translate(461.38 -34.69)"/><path class="cls-1" d="M332.06,406.51h11.47v2.17H332.06Zm4.59,1.33h2.28v14.93h-2.28Z" transform="translate(461.38 -34.69)"/><path class="cls-1" d="M345.73,422.35a4,4,0,0,1-1.64-1.73,6.18,6.18,0,0,1-.56-2.73V416a6,6,0,0,1,.56-2.7,4,4,0,0,1,1.64-1.72,6.05,6.05,0,0,1,5.17,0,4,4,0,0,1,1.64,1.72,6,6,0,0,1,.56,2.7v1.92a6.06,6.06,0,0,1-.56,2.71,4,4,0,0,1-1.64,1.72,6,6,0,0,1-5.17,0Zm4.44-2.33a3.12,3.12,0,0,0,.65-2.1V416a3.06,3.06,0,0,0-.65-2.09,2.7,2.7,0,0,0-3.71,0,3.06,3.06,0,0,0-.65,2.09v1.92a3.12,3.12,0,0,0,.65,2.1,2.67,2.67,0,0,0,3.71,0Z" transform="translate(461.38 -34.69)"/><path class="cls-1" d="M357.85,422.42a3.48,3.48,0,0,1-1.37-1.62,6.28,6.28,0,0,1-.47-2.55v-2.56a6.4,6.4,0,0,1,.46-2.56,3.44,3.44,0,0,1,1.33-1.61,3.88,3.88,0,0,1,2.11-.56,3.43,3.43,0,0,1,1.88.54,3.91,3.91,0,0,1,1.39,1.51l-.24,2.37a2.73,2.73,0,0,0-.27-1.26,1.81,1.81,0,0,0-.77-.8,2.52,2.52,0,0,0-1.24-.28,2.21,2.21,0,0,0-1.75.71,2.92,2.92,0,0,0-.62,2v2.52a2.84,2.84,0,0,0,.62,2,2.23,2.23,0,0,0,1.75.68,2.52,2.52,0,0,0,1.24-.28,1.91,1.91,0,0,0,.77-.82,2.86,2.86,0,0,0,.27-1.29l.16,2.45a3.3,3.3,0,0,1-1.14,1.44A3.15,3.15,0,0,1,360,423,4,4,0,0,1,357.85,422.42Zm5.09-15.91h2.28v16.26h-2.28Z" transform="translate(461.38 -34.69)"/><path class="cls-1" d="M369.19,422.05a3.94,3.94,0,0,1-.09-5.28,4.3,4.3,0,0,1,2.94-.86h3.3l.16,1.83h-3.44a1.92,1.92,0,0,0-1.34.4,1.52,1.52,0,0,0-.44,1.21,1.5,1.5,0,0,0,.58,1.31,3.11,3.11,0,0,0,1.79.42,5.09,5.09,0,0,0,2-.28.9.9,0,0,0,.64-.87l.24,1.63a2.66,2.66,0,0,1-.75.78,3.16,3.16,0,0,1-1,.45,5.24,5.24,0,0,1-1.31.15A4.94,4.94,0,0,1,369.19,422.05Zm6.05-6.64a2.43,2.43,0,0,0-.61-1.77,2.27,2.27,0,0,0-1.72-.63,4.44,4.44,0,0,0-1.36.21,3.75,3.75,0,0,0-1.18.6l-1.67-1.15a4.39,4.39,0,0,1,1.74-1.23,6.18,6.18,0,0,1,2.4-.44,5.53,5.53,0,0,1,2.47.51,3.55,3.55,0,0,1,1.57,1.47,4.83,4.83,0,0,1,.53,2.33v7.46h-2.17Z" transform="translate(461.38 -34.69)"/><path class="cls-1" d="M379.31,411.17h2.33l3.57,10.08-1.27,2.47Zm10.28,0-4.94,14.32a3.44,3.44,0,0,1-.71,1.26,2.42,2.42,0,0,1-1.07.66,5.12,5.12,0,0,1-1.57.2h-.46v-2.19h.46a1.79,1.79,0,0,0,1-.25,2.14,2.14,0,0,0,.65-.89l4.29-13.11Z" transform="translate(461.38 -34.69)"/><path class="cls-51" d="M108,1393.91H56.8a.28.28,0,0,1,0,.09H42.57q.45,5.71.45,11.53A146.68,146.68,0,0,1-103.66,1552.2a146.66,146.66,0,0,1-146.67-146.67,146.66,146.66,0,0,1,146.67-146.68A146.18,146.18,0,0,1-2.53,1299.28l32.75-32.75-.09-.08,13.07-13.07a212.17,212.17,0,0,0-147.59-59.51,212.35,212.35,0,0,0-30.34,2.17c-3.4,7.76-6.62,15.58-11.15,22.9-5.82,9.39-13,18.16-22.16,24.3-6.94,4.65-14.83,7.69-22.61,10.72-31.8,12.38-64.34,26.45-87.12,51.86a117,117,0,0,0-27.62,55.72c-1.18,6.15-4.05,13.86-5.71,19.91-2,7.41-3.38,13-4.86,20.56-1.19,6.08-1,12.33-.69,18.54.06.81.1,1.63.15,2.42,8.36,109.86,100.13,196.38,212.11,196.38,117.49,0,212.74-95.25,212.74-212.74Q108.35,1400.21,108,1393.91Z" transform="translate(461.38 -34.69)"/><path class="cls-51" d="M69.19,1408.75A58.41,58.41,0,0,1,73.3,1417c4.13,10.38,4.44,22.94-2,32.09-1.83-9.11-3.82-18.25-7.36-26.83a65.23,65.23,0,0,0-5.41-10.47c-13.71-21.31-45.57-29.73-69.44-32.35-21.63-2.39-43.54.56-64.11,7.51a190.75,190.75,0,0,0-44.89,22.3c-4.35,2.91-8.6,6-12.67,9.27-1.37,1.11-3.13,3.35-4.76,4C-22.51,1374.15,29,1424.19,29,1424.19c-25.77,29.73-51.7,47.38-76.73,56.53a130.48,130.48,0,0,1-40.64,8c-19.89.68-38.74-3.22-55.95-9.58-56.36-20.85-95.21-68.23-95.21-68.23,36.4-.4,58.62-9.74,77.53-21.82,1.52-1,3-2,4.51-3,27.33-18.5,49.31-42,101.3-50.44,32.3-5.28,57,3,75.49,15.73a121.46,121.46,0,0,1,30.12,30.55C55.66,1390.91,63.54,1399.23,69.19,1408.75Z" transform="translate(461.38 -34.69)"/><path class="cls-51" d="M52.73,1393.92a25.33,25.33,0,0,0,1.48,3.53c2.13,4.1,6,7.6,10.58,8.08a60,60,0,0,1-6.41-9.58,27.16,27.16,0,0,1-1.81-4.52c-3-10.07,3-22.32,8.67-30.51a61.87,61.87,0,0,1,19.71-18,78.49,78.49,0,0,1,19.14-8q3.14-.87,6.33-1.46a10.69,10.69,0,0,0,2.55-.4c-46.24,22.84-44.51,52.5-44.51,52.5,16.29,0,28.84-3.36,38.48-8.72a54.14,54.14,0,0,0,13.51-10.57,60.63,60.63,0,0,0,12.14-20.11c8.74-23.3,4.42-48.29,4.42-48.29-10,11.29-18.93,15.72-27.83,18.37l-2.16.6c-13.19,3.55-26.49,4.08-43.22,18.07-10.4,8.68-14.51,18.67-15.51,27.9a50.06,50.06,0,0,0,1.41,17.7C50.81,1384.86,51.28,1389.58,52.73,1393.92Z" transform="translate(461.38 -34.69)"/><path class="cls-4" d="M-316.84,1284.17s-3.81-211,235.2-183.59c0,0-47.63,24.41-66.22,95.25s-106.29,42.72-145.24,121.31c0,0,28.14-107.52,96.85-169.4,0,0-115,77.37-129.62,258.87,0,0,11.4-126.45-50-172.53,0,0,18.95,21.14,35.62,86,0,0-25.14-27.86-50.8-33.86s-19.28-22.22-30.42-71-39.91-55-39.91-55S-352.26,1165.87-316.84,1284.17Z" transform="translate(461.38 -34.69)"/><path class="cls-51" d="M486.12,825.1l-1,0h-1.08c-.35,0-.71,0-1.06,0a43.51,43.51,0,0,0-41.3,38.49l-.06.54c0,.36-.07.73-.1,1.1l0,.41c0,.6-.06,1.2-.08,1.81,0,.15,0,.3,0,.45v.66c0,.53,0,1,0,1.57,0,.17,0,.34,0,.52l0,.52,0,.42q.09,1.26.24,2.49A43.28,43.28,0,0,0,446,888l.06.12a43.51,43.51,0,0,0,38,24h1.81a43.26,43.26,0,0,0,12.28-2l.4-.13a43.44,43.44,0,0,0,19.67-13.33l.4-.48a1.34,1.34,0,0,0,.11-.14,43.5,43.5,0,0,0-32.61-70.86Zm17,58.32c-.06.09-.14.17-.21.26a23.77,23.77,0,0,1-4.22,3.92,23.51,23.51,0,0,1-6.39,3.26l-.21.08a23.71,23.71,0,0,1-6.62,1.09h-1a23.47,23.47,0,0,1-22.8-20.47c-.05-.45-.1-.89-.13-1.35,0-.07,0-.14,0-.22s0-.19,0-.28,0-.19,0-.29c0-.27,0-.56,0-.84V868c0-.33,0-.65,0-1,0-.08,0-.15,0-.22s0-.4.06-.6,0-.19,0-.29a23.33,23.33,0,0,1,1.74-6.57l.1-.22c0-.1.08-.19.13-.29a19.43,19.43,0,0,1,.9-1.76,23.43,23.43,0,0,1,19.4-11.91l.57,0h1.1a23.28,23.28,0,0,1,14.27,5.34c.23.19.46.38.69.59a23.33,23.33,0,0,1,7.3,12.46,22.79,22.79,0,0,1,.55,5.05A23.33,23.33,0,0,1,503.09,883.42Z" transform="translate(461.38 -34.69)"/><path class="cls-51" d="M431.62,848.55h-16c.11,1.32.16,2.64.16,4A50.72,50.72,0,1,1,400,815.81l11.32-11.32A66.46,66.46,0,0,0,365,785.83a68,68,0,0,0-9.52.67,55.38,55.38,0,0,1-3.49,7.19,24.47,24.47,0,0,1-6.95,7.61,35.45,35.45,0,0,1-7.09,3.37c-10,3.88-20.17,8.29-27.32,16.26A36.71,36.71,0,0,0,302,838.4c-.37,1.93-1.27,4.35-1.79,6.24-.64,2.33-1.06,4.07-1.52,6.45a24,24,0,0,0-.22,5.81c0,.26,0,.51,0,.76a66.7,66.7,0,0,0,133.21-5.13C431.74,851.19,431.7,849.87,431.62,848.55Z" transform="translate(461.38 -34.69)"/><path class="cls-51" d="M425.67,848.58H411.12c.09,1.19.14,2.4.14,3.61A46,46,0,1,1,397,818.88l10.27-10.27a60.36,60.36,0,0,0-42-16.93,39.45,39.45,0,0,0-7.76.49c-1.82.38-2.63,2.65-3.91,4a50.14,50.14,0,0,1-7.73,6.91C344,804.3,342,805.3,340,806.47c-1.33.81-2.6,1.7-4,2.39-1.22.62-2.52,1.08-3.75,1.7a30,30,0,0,0-3.81,2.44l-7.6,5.41c-3.37,2.4-5.54,5.42-7.81,8.83a33.26,33.26,0,0,0-5,12.13c-.34,1.75-1.16,4-1.63,5.67-.58,2.1-1,3.69-1.38,5.84a21.66,21.66,0,0,0-.2,5.28c0,.23,0,.46.05.69a60.51,60.51,0,0,0,120.84-4.66C425.78,851,425.74,849.77,425.67,848.58Z" transform="translate(461.38 -34.69)"/><path class="cls-51" d="M419.46,853.2a16.56,16.56,0,0,1,1.29,2.6c1.3,3.25,1.4,7.19-.61,10.06a46,46,0,0,0-2.31-8.42,21.64,21.64,0,0,0-1.69-3.28c-4.3-6.68-14.29-9.32-21.78-10.14a47,47,0,0,0-20.1,2.35,59.9,59.9,0,0,0-14.08,7c-1.36.91-2.69,1.87-4,2.9a8.5,8.5,0,0,1-1.49,1.27c36-15.19,52.13.51,52.13.51-8.08,9.32-16.21,14.85-24.06,17.72a41,41,0,0,1-12.74,2.5,46.16,46.16,0,0,1-17.55-3c-17.67-6.54-29.85-21.39-29.85-21.39,11.41-.13,18.38-3.06,24.31-6.85.47-.31,1-.62,1.41-.94,8.57-5.8,15.46-13.15,31.76-15.81,10.13-1.66,17.89.93,23.67,4.93a38.07,38.07,0,0,1,9.45,9.58C415.22,847.61,417.69,850.22,419.46,853.2Z" transform="translate(461.38 -34.69)"/><path class="cls-51" d="M414.31,848.59a8,8,0,0,0,.53,1.15,4.69,4.69,0,0,0,3.59,2.55,18.8,18.8,0,0,1-2.23-3.09,8.76,8.76,0,0,1-.65-1.47c-1.09-3.3.75-7.42,2.52-10.19a20.62,20.62,0,0,1,6.32-6.19,25.86,25.86,0,0,1,6.23-2.86c.69-.22,1.38-.41,2.08-.56a3.29,3.29,0,0,0,.84-.16c-15,8.07-14.12,17.86-14.12,17.86A25.78,25.78,0,0,0,432,842.31a18,18,0,0,0,4.35-3.64,20.28,20.28,0,0,0,3.79-6.79,34.59,34.59,0,0,0,.91-16,18.58,18.58,0,0,1-9,6.39l-.71.23c-4.32,1.32-8.71,1.64-14.09,6.46a13.66,13.66,0,0,0-4.81,9.4,16.68,16.68,0,0,0,.66,5.83C413.57,845.62,413.78,847.17,414.31,848.59Z" transform="translate(461.38 -34.69)"/><path class="cls-4" d="M298.42,814.14s-1.19-66.15,73.75-57.57c0,0-14.93,7.66-20.76,29.87s-33.33,13.39-45.55,38c0,0,8.83-33.72,30.38-53.12,0,0-36.06,24.26-40.65,81.17,0,0,3.57-39.65-15.68-54.09,0,0,5.94,6.62,11.17,26.95,0,0-7.88-8.73-15.93-10.61s-6-7-9.54-22.27-12.51-17.24-12.51-17.24S287.32,777.05,298.42,814.14Z" transform="translate(461.38 -34.69)"/><polygon class="cls-7" points="1000.34 877.39 1002.04 764.6 1079.51 764.6 1072.07 796.1 1034.81 797.37 1035.66 813.55 1062.02 808.87 1056.95 828.02 1033.54 831 1035.66 877.39 1000.34 877.39"/><path class="cls-7" d="M671.75,914.64l-11.91-85.13-39.11,2.13-17.51,80.45,28.53,2.55.42-13.2h12.31l-1.67,13.2Zm-38.3-29.37,4-23.83,7,23.83Z" transform="translate(461.38 -34.69)"/><path class="cls-7" d="M726.66,875.48s39.59-34.05,10.22-47.67-57.31,3.4-57.31,3.4v83.43l29.64-2.55V883.57l21.71,28.52,19.15-13.2Zm-18.58-3.4V854.2c14.47-4.25,19,1.49,19,1.49C725.38,871.93,708.08,872.08,708.08,872.08Z" transform="translate(461.38 -34.69)"/><path class="cls-7" d="M752.74,912.09s8.83-67.68,8.83-80.45l33.62-2.13L802,861.44l5.11-30.22,34.9-1.71s11.07,74.92,15.32,80.88l-33.62,1.7L816.9,870.8l-3.83,41.29H797.32l-8.94-41.29-5.53,41.29Z" transform="translate(461.38 -34.69)"/><path class="cls-46" d="M1156.15,961.29l-.88,0h-1c-.32,0-.64,0-1,0A39.36,39.36,0,0,0,1116,996.12c0,.17,0,.33,0,.5,0,.32-.06.66-.09,1l0,.37c0,.54-.06,1.08-.07,1.63,0,.14,0,.28,0,.42v.6c0,.47,0,.94,0,1.41,0,.16,0,.31,0,.47l0,.48,0,.37c0,.76.13,1.51.22,2.26a39,39,0,0,0,3.81,12.56l.06.12a39.36,39.36,0,0,0,34.38,21.67h1.64a39.17,39.17,0,0,0,11.11-1.85l.36-.11a39.45,39.45,0,0,0,17.8-12.06l.36-.44.09-.12a39.34,39.34,0,0,0-29.49-64.1ZM1171.5,1014l-.19.24a21.21,21.21,0,0,1-9.6,6.5l-.19.06a21.23,21.23,0,0,1-6,1h-.88a21.24,21.24,0,0,1-20.63-18.53c0-.4-.09-.8-.12-1.21a1.34,1.34,0,0,0,0-.2c0-.09,0-.17,0-.26a2.09,2.09,0,0,1,0-.25c0-.26,0-.51,0-.76s0-.22,0-.33v-.22c0-.3,0-.59,0-.88,0-.07,0-.14,0-.2s0-.36,0-.54l0-.26a21.09,21.09,0,0,1,1.58-5.94.72.72,0,0,1,.09-.2c0-.09.07-.18.11-.27.25-.54.52-1.07.82-1.59a21.18,21.18,0,0,1,17.55-10.77l.51,0h1a21.11,21.11,0,0,1,12.91,4.83c.21.17.41.34.62.53a21.17,21.17,0,0,1,6.61,11.28,21.47,21.47,0,0,1,.49,4.57A21.08,21.08,0,0,1,1171.5,1014Z" transform="translate(461.38 -34.69)"/><path class="cls-46" d="M1353.12,777.23a65.91,65.91,0,0,0-14.14-23h-97.22v49.26a77,77,0,0,0,27.86,10.6h24.21v13.1c-27.28,19.84-66.59,17-91-7.44q-1.62-1.63-3.13-3.35A70.49,70.49,0,0,1,1188,741.66a5.71,5.71,0,0,1,.3-.67c.12-.3.25-.59.38-.88.85-1.8,1.76-3.57,2.76-5.3a70.92,70.92,0,0,1,11.4-14.93,69.72,69.72,0,0,1,33.91-18.65l.94-.21,1.27-.26.48-.09c1-.19,2.11-.36,3.16-.52l1.69-.22,1.7-.18,1.69-.14,1.7-.1h.15l.66,0,1,0h1a70.79,70.79,0,0,1,45.18,15.65c.7.56,1.38,1.15,2.06,1.76,1.11,1,2.2,2,3.25,3l41-40.94,1.21-1.21.34-.34a130,130,0,0,0-63.92-35.13l-.55.2c-.9.32-1.79.68-2.68,1a60.59,60.59,0,0,0-23.67,17.37c-4.48,5.45-8,11.64-12.61,17a53.77,53.77,0,0,1-31.52,17.69c-6.56,1.08-13.29.93-19.85,2-16.84,2.69-31.68,13.1-42.92,25.94a134.83,134.83,0,0,0-11.35,15.11c-3,4.61-5.82,9.36-8.5,14.18-.65,1.16-1.92,4.15-3.33,7-.55,1.09-1.11,2.17-1.67,3.1a132.76,132.76,0,0,0,7.28,50.7c.13.39.28.78.42,1.17a128.69,128.69,0,0,0,5.49,12.94c0,.12.12.24.18.36a130.94,130.94,0,0,0,39.35,46.54l1.32,1c.83.6,1.68,1.19,2.53,1.77s1.43,1,2.14,1.43l1.47.95c1.06.68,2.14,1.34,3.22,2l1,.61c1.23.73,2.47,1.43,3.73,2.11.85.46,1.7.91,2.54,1.34s1.71.87,2.58,1.28,1.73.82,2.61,1.22l2,.91c.32.15.63.29,1,.42,1,.43,2,.84,3,1.24.57.23,1.13.45,1.69.65a6.37,6.37,0,0,0,.61.23c.8.31,1.6.6,2.41.88s1.82.64,2.74.94c.7.23,1.41.46,2.13.67s1.43.44,2.15.64,1.26.37,1.9.54l.89.23,1.53.41c.74.19,1.48.37,2.23.54l2,.46a1,1,0,0,0,.19,0c.71.16,1.43.31,2.15.45l2.15.41,2.38.41c.72.12,1.46.22,2.19.32s1.43.2,2.14.3l.37,0,2,.24c.76.09,1.53.16,2.29.23l1.77.14c.22,0,.45,0,.68.06l1.92.11.56,0,1.74.08c.85,0,1.69.06,2.55.07l1.66,0h.94l2.82,0c1.63,0,3.24-.1,4.85-.2a129,129,0,0,0,32.06-5.91l1.2-.39a130.92,130.92,0,0,0,59-40c.41-.48.81-1,1.19-1.45.12-.14.23-.26.33-.4V776C1353.74,776.42,1353.42,776.83,1353.12,777.23Z" transform="translate(461.38 -34.69)"/><path class="cls-46" d="M1142.3,692s24.15-101,134.66-58.53c0,0-25.69,5.77-43.27,37.24s-55.9,7.27-84.13,39.92c0,0,26.64-47.77,67-68.8-4.2,2.19-8.67,3.82-12.84,6.15a159,159,0,0,0-30.11,22,183,183,0,0,0-34.24,43,202.18,202.18,0,0,0-10,19.71q-2.39,5.43-4.47,11c-.28.73-1.4,5.07-2.26,4.8s.35-5.55.52-6.32l2.75-12.59c.7-3.21,1.4-6.43,2.34-9.59s2.55-5.89,2.76-9a128.83,128.83,0,0,0,.3-17.57c-.74-11.42-3.59-23.16-10.78-32.31l-.21-.27s6.43,12.41,6.4,45.35c0,0-8.56-16.37-20-22.38s-6.45-13-5.76-37.58-12.25-31.11-12.25-31.11S1140,631.3,1142.3,692Z" transform="translate(461.38 -34.69)"/><path class="cls-4" d="M1373.09,794.52c-.95-1-1.9-2.09-2.86-3.08-1.8-1.88-3.62-3.64-5.45-5.3-50.84-46-111.53-9.09-112.7-8.37,73.51-15.31,98.14,20.26,98.14,20.26-18.7,14.59-36.08,22-52,24.52a78.8,78.8,0,0,1-25,0,88.24,88.24,0,0,1-32-12.17C1210.43,791.51,1193,759,1193,759c21.57,4,35.79,1,48.38-3.9l3-1.24c18.3-7.77,34-19.09,65.76-18.07,19.71.63,33.38,8.38,42.81,18.07a75.94,75.94,0,0,1,16.23,26.37c.39,1,.74,2.06,1.07,3A72.38,72.38,0,0,1,1373.09,794.52Z" transform="translate(461.38 -34.69)"/><path class="cls-46" d="M1101.71,998.08a30.78,30.78,0,0,0-6.56-10.65h-45.06v22.84a35.6,35.6,0,0,0,12.91,4.91h11.22v6.07a32.91,32.91,0,0,1-42.19-3.44c-.5-.51-1-1-1.46-1.56a32.68,32.68,0,0,1-5.42-34.65,1.73,1.73,0,0,1,.14-.31c0-.14.11-.28.17-.41.4-.84.82-1.65,1.28-2.46a33,33,0,0,1,5.29-6.92,32.24,32.24,0,0,1,15.72-8.64l.43-.1.59-.12.22,0q.73-.14,1.47-.24l.78-.11.79-.08.78-.06.79-.05h.38l.48,0h.46a32.79,32.79,0,0,1,20.94,7.25q.5.39,1,.81c.52.46,1,.93,1.51,1.41l19-19,.56-.56.16-.16a60.3,60.3,0,0,0-29.63-16.28l-.25.09c-.42.15-.83.32-1.24.49a28.2,28.2,0,0,0-11,8c-2.08,2.53-3.7,5.4-5.84,7.87a24.89,24.89,0,0,1-14.61,8.2c-3,.5-6.16.43-9.21.92-7.8,1.24-14.68,6.07-19.89,12a63.14,63.14,0,0,0-5.26,7c-1.4,2.13-2.7,4.34-3.94,6.57-.31.54-.89,1.92-1.55,3.24-.25.51-.51,1-.77,1.43a61.38,61.38,0,0,0,3.38,23.51c.06.18.12.36.19.54a60.57,60.57,0,0,0,2.54,6l.09.17a60.69,60.69,0,0,0,18.24,21.57l.61.44c.39.28.78.56,1.17.82l1,.67.68.44,1.49.92.48.28c.58.34,1.15.66,1.74,1l1.17.62,1.2.59c.4.2.8.38,1.21.57l.94.42.44.19,1.41.58.78.3.28.11,1.12.41,1.27.43,1,.31,1,.3.88.25.42.11.7.18,1,.25c.31.08.63.15.94.21l.09,0,1,.21,1,.19,1.1.19,1,.15,1,.13.18,0,.94.11,1.06.1.82.07.32,0,.89.06.26,0,.81,0,1.18,0h1.2c.44,0,.88,0,1.31,0q1.13,0,2.25-.09a59.71,59.71,0,0,0,14.86-2.74l.56-.18a60.58,60.58,0,0,0,27.35-18.53c.19-.23.38-.45.56-.68l.15-.18v-35Z" transform="translate(461.38 -34.69)"/><path class="cls-46" d="M1004,958.59s11.2-46.82,62.43-27.14c0,0-11.92,2.68-20.06,17.27s-25.92,3.37-39,18.5c0,0,12.35-22.14,31.05-31.89-1.94,1-4,1.77-6,2.85a74,74,0,0,0-14,10.2,84.85,84.85,0,0,0-15.87,20,92,92,0,0,0-4.62,9.14c-.74,1.68-1.43,3.37-2.08,5.09-.12.34-.64,2.35-1,2.23s.16-2.58.24-2.93l1.27-5.84c.33-1.49.65-3,1.09-4.44s1.18-2.74,1.28-4.19a59.79,59.79,0,0,0,.14-8.14c-.34-5.29-1.67-10.74-5-15l-.1-.12s3,5.75,3,21c0,0-4-7.59-9.29-10.38s-3-6-2.67-17.41S979.13,923,979.13,923,1002.91,930.44,1004,958.59Z" transform="translate(461.38 -34.69)"/><path class="cls-4" d="M1111,1006.1c-.44-.49-.88-1-1.32-1.43q-1.26-1.3-2.52-2.46c-23.57-21.32-51.7-4.21-52.25-3.87,34.08-7.1,45.49,9.39,45.49,9.39-8.66,6.76-16.72,10.2-24.08,11.36a36.19,36.19,0,0,1-11.57,0,40.73,40.73,0,0,1-14.82-5.64c-14.33-8.74-22.43-23.82-22.43-23.82,10,1.85,16.6.48,22.43-1.81l1.4-.58c8.49-3.6,15.78-8.85,30.48-8.37,9.14.29,15.48,3.88,19.85,8.37a35.13,35.13,0,0,1,7.52,12.23c.18.48.35.95.5,1.4A33.24,33.24,0,0,1,1111,1006.1Z" transform="translate(461.38 -34.69)"/><polygon class="cls-7" points="1665.32 1005.28 1666.86 903.25 1736.93 903.25 1730.21 931.74 1696.51 932.9 1697.28 947.53 1721.12 943.29 1716.53 960.62 1695.35 963.32 1697.28 1005.28 1665.32 1005.28"/><path class="cls-7" d="M1324.06,1042.29l-10.78-77-35.37,1.93L1262.08,1040l25.79,2.31.39-11.94h11.14l-1.51,11.94Zm-34.65-26.57,3.66-21.56,6.33,21.56Z" transform="translate(461.38 -34.69)"/><path class="cls-7" d="M1373.73,1006.86s35.81-30.79,9.24-43.12-51.84,3.08-51.84,3.08v75.47L1358,1040v-25.8l19.64,25.8,17.32-11.94Zm-16.81-3.08V987.61c13.09-3.85,17.2,1.35,17.2,1.35C1372.58,1003.66,1356.92,1003.78,1356.92,1003.78Z" transform="translate(461.38 -34.69)"/><path class="cls-7" d="M1397.32,1040s8-61.22,8-72.77l30.41-1.93,6.16,28.88,4.62-27.34,31.57-1.54s10,67.77,13.87,73.16l-30.42,1.54-6.16-37.35-3.47,37.35h-14.24l-8.09-37.35-5,37.35Z" transform="translate(461.38 -34.69)"/></svg>