<svg id="Layer_1" data-name="Layer 1" xmlns="http://www.w3.org/2000/svg" viewBox="0 0 633.52 633.78"><defs><style>.cls-1{fill:#0d9948;}.cls-2{fill:#7fbd42;}</style></defs><path class="cls-1" d="M505,305.65H459.64v.08H447c.27,3.38.4,6.78.4,10.22A130.09,130.09,0,1,1,407,221.71l29.05-29.05a.6.6,0,0,0-.08-.08L447.57,181a188.84,188.84,0,0,0-157.82-50.87c-3,6.89-5.87,13.82-9.89,20.32-5.17,8.33-11.51,16.1-19.66,21.55-6.15,4.13-13.16,6.82-20.06,9.51-28.21,11-57.07,23.46-77.27,46a103.7,103.7,0,0,0-24.5,49.42c-1.05,5.46-3.59,12.3-5.07,17.66-1.82,6.58-3,11.52-4.31,18.24-1.05,5.39-.9,10.94-.61,16.45.05.72.08,1.44.13,2.15,7.41,97.44,88.82,174.18,188.15,174.18,104.21,0,188.7-84.48,188.7-188.7Q505.36,311.23,505,305.65Z"/><path class="cls-1" d="M470.62,318.81a50.68,50.68,0,0,1,3.65,7.34c3.67,9.2,3.94,20.34-1.73,28.46-1.63-8.08-3.4-16.18-6.54-23.8a58.59,58.59,0,0,0-4.79-9.28c-12.17-18.91-40.42-26.37-61.6-28.7-19.18-2.12-38.62.5-56.86,6.66a169.2,169.2,0,0,0-39.83,19.78c-3.85,2.58-7.62,5.31-11.23,8.23-1.22,1-2.78,3-4.23,3.58,101.83-43,147.48,1.43,147.48,1.43-22.86,26.37-45.87,42-68.07,50.14a116,116,0,0,1-36.05,7.08,130.2,130.2,0,0,1-49.63-8.5c-50-18.49-84.45-60.52-84.45-60.52,32.29-.35,52-8.64,68.77-19.36q2-1.31,4-2.65c24.23-16.41,43.74-37.22,89.85-44.74,28.65-4.68,50.59,2.64,66.95,14A107.9,107.9,0,0,1,453.05,295C458.63,303,465.61,310.37,470.62,318.81Z"/><path class="cls-1" d="M456,305.66a21.36,21.36,0,0,0,1.31,3.13c1.89,3.64,5.3,6.74,9.38,7.16a52.82,52.82,0,0,1-5.68-8.49,24.09,24.09,0,0,1-1.61-4c-2.63-8.92,2.69-19.79,7.69-27.06a54.85,54.85,0,0,1,17.48-16,69.73,69.73,0,0,1,17-7.11c1.85-.51,3.73-1,5.62-1.3a9.43,9.43,0,0,0,2.26-.35c-41,20.26-39.48,46.57-39.48,46.57,14.45,0,25.58-3,34.13-7.74a47.56,47.56,0,0,0,12-9.37,53.74,53.74,0,0,0,10.78-17.85c7.74-20.66,3.91-42.83,3.91-42.83-8.85,10-16.78,13.95-24.68,16.3-.64.18-1.28.37-1.92.53-11.7,3.15-23.49,3.62-38.33,16C456.62,261,453,269.82,452.08,278a44.72,44.72,0,0,0,1.25,15.71C454.32,297.62,454.74,301.8,456,305.66Z"/><path class="cls-2" d="M128.21,208.3S124.83,21.17,336.84,45.46c0,0-42.25,21.65-58.74,84.49s-94.28,37.89-128.84,107.6c0,0,25-95.37,85.92-150.26,0,0-102,68.63-115,229.62,0,0,10.11-112.16-44.35-153,0,0,16.81,18.75,31.6,76.26,0,0-22.31-24.71-45.06-30s-17.11-19.72-27-63S0,98.36,0,98.36,96.79,103.37,128.21,208.3Z"/></svg>